<svg width="399" height="281" viewBox="0 0 399 281" fill="none" xmlns="http://www.w3.org/2000/svg">
<path d="M78.7055 79.298H24.5633C22.6169 79.298 21.0391 77.7194 21.0391 75.7722V67.2154C21.0391 53.5551 32.7433 43.5537 44.2852 54.8965C54.2005 45.3831 65.9039 54.5303 65.9039 63.4339C73.8664 60.7405 80.6998 65.4826 82.1852 75.1957C82.5147 77.3475 80.8808 79.298 78.7055 79.298Z" fill="#BEDCE0"/>
<path d="M43.6166 220.969L33.25 279.481H39.4844L54.9808 220.969H43.6166Z" fill="#BEDCE0"/>
<path d="M53.4963 226.563L41.4609 233.121L43.6143 220.969H54.9784L53.4963 226.563Z" fill="#A4CACF"/>
<path d="M65.3518 220.969L54.9844 279.481H61.2196L76.7159 220.969H65.3518Z" fill="#BEDCE0"/>
<path d="M75.2307 226.563L63.1953 233.121L65.3487 220.969H76.7128L75.2307 226.563Z" fill="#A4CACF"/>
<path d="M122.371 220.969L132.739 279.481H126.503L111.008 220.969H122.371Z" fill="#BEDCE0"/>
<path d="M112.489 226.563L124.524 233.121L122.371 220.969H111.008L112.489 226.563Z" fill="#A4CACF"/>
<path d="M100.638 220.969L111.005 279.481H104.77L89.2734 220.969H100.638Z" fill="#BEDCE0"/>
<path d="M90.7555 226.563L102.791 233.121L100.638 220.969H89.2734L90.7555 226.563Z" fill="#A4CACF"/>
<path d="M98.247 215.413H44.5504L26.7067 145.993C26.2521 144.225 27.5865 142.504 29.4111 142.504H77.3417C78.616 142.504 79.7288 143.367 80.0462 144.601L98.247 215.413Z" fill="#BEDCE0"/>
<path d="M37.75 188.961L94.1876 199.624L98.2459 215.413H44.5501L37.75 188.961Z" fill="#A4CACF"/>
<path d="M126.543 220.97H39.4922C39.4922 212.064 46.7087 204.844 55.6119 204.844H110.425C119.326 204.844 126.543 212.063 126.543 220.97Z" fill="#BEDCE0"/>
<path d="M109.468 205.492L105.573 257.234L111.308 270.522L120.227 279.461L111.366 279.475C109.28 279.478 107.262 278.73 105.682 277.368L99.6145 272.136L99.6258 279.449L97.2339 279.453L95.2664 267.521C95.1041 266.535 95.1446 265.527 95.3849 264.558L97.5959 255.652L93.2656 204.865L109.468 205.492Z" fill="#DE6767"/>
<path d="M97.2302 279.452L99.6222 279.449L99.6108 272.136L105.678 277.368C107.258 278.731 109.276 279.478 111.362 279.475L120.223 279.461L111.305 270.522L108.434 263.872L102.893 267.61L96.2643 260.998L95.3804 264.557C95.1394 265.527 95.0996 266.535 95.2619 267.52L97.2302 279.452Z" fill="#1B2536"/>
<path d="M60.6053 205.497L53.819 257.233L45.3379 270.53L34.5703 279.483H43.4313C45.5173 279.483 47.6901 278.732 49.5521 277.367L56.702 272.125L55.181 279.438H57.5738L62.0055 267.503C62.3715 266.517 62.5395 265.508 62.499 264.54L62.1256 255.637L76.9434 204.844L60.6053 205.497Z" fill="#DE6767"/>
<path d="M57.5738 279.438H55.181L56.702 272.126L49.5521 277.367C47.6901 278.732 45.5173 279.483 43.4313 279.483H34.5703L45.3379 270.53L49.5821 263.875L54.3523 267.604L62.3488 260.982L62.4981 264.54C62.5387 265.509 62.3707 266.517 62.0046 267.503L57.5738 279.438Z" fill="#1B2536"/>
<path d="M101.624 72.2402C101.839 76.7477 104.93 78.5925 108.27 81.6838C111.609 84.7751 111.545 91.647 108.02 94.6977C103.585 98.5369 79.6932 96.1926 76.0715 95.8443C70.8882 95.3457 66.9232 91.6673 68.8444 85.1738C70.29 80.2872 79.108 75.3737 79.7264 70.1152L101.624 72.2402Z" fill="#28364F"/>
<path d="M122.858 114.195L116.145 98.939C114.271 94.68 110.613 91.4661 106.149 90.1564L98.5804 87.9355H81.8105L74.2417 90.1564C69.7784 91.4661 66.1202 94.68 64.2461 98.939L57.5328 114.195H49.7578L51.0435 123.661C51.7342 128.749 56.0774 132.544 61.2104 132.544C65.2257 132.544 68.8718 130.201 70.5414 126.549L73.6817 119.679L75.775 126.46L67.5341 145.807H112.856L104.616 126.461L106.709 119.68L109.85 126.549C111.519 130.202 115.165 132.544 119.18 132.544C124.313 132.544 128.657 128.75 129.347 123.662L130.633 114.196L122.858 114.195Z" fill="#6E3C3C"/>
<path d="M68.3516 99.623L73.6785 119.68" stroke="#1B2536" stroke-width="0.6759" stroke-miterlimit="10"/>
<path d="M59.8281 114.826L66.5406 124.533" stroke="#1B2536" stroke-width="0.6759" stroke-miterlimit="10"/>
<path d="M112.039 99.623L106.711 119.68" stroke="#1B2536" stroke-width="0.6759" stroke-miterlimit="10"/>
<path d="M120.563 114.826L113.852 124.533" stroke="#1B2536" stroke-width="0.6759" stroke-miterlimit="10"/>
<path d="M82.3906 94.416H98.0079L90.1997 123.469L82.3906 94.416Z" fill="white"/>
<path d="M81.8127 87.9355L91.6817 125.962L82.9125 115.373C81.1195 113.207 80.5416 110.282 81.3776 107.597L82.3971 104.323L79.4678 100.071C77.2795 96.8943 77.5628 92.6289 80.152 89.7699L81.8127 87.9355Z" fill="#D9956A"/>
<path d="M98.58 87.9355L88.7109 125.962L97.4802 115.373C99.2732 113.207 99.8511 110.282 99.015 107.597L97.9956 104.323L100.925 100.071C103.113 96.8943 102.83 92.6289 100.241 89.7699L98.58 87.9355Z" fill="#D9956A"/>
<path d="M94.794 85.0035L94.3541 78.6602H90.1975H86.041L85.6011 85.0035C85.5321 85.9949 84.8795 86.8492 83.9412 87.1756L81.7578 87.9356L84.0256 96.8149H90.1975H96.3694L98.6372 87.9356L96.4539 87.1756C95.5156 86.8492 94.8622 85.9941 94.794 85.0035Z" fill="#DE6767"/>
<path d="M94.7227 83.9711L94.3542 78.6582H90.1976H86.0411L85.8203 81.838C87.2302 83.3613 89.2439 84.4137 91.9322 84.4137C92.963 84.4137 93.8858 84.248 94.7227 83.9711Z" fill="#28364F"/>
<path d="M98.8754 70.3947C98.8584 65.8508 96.4461 61.6097 92.4365 59.0681L90.1987 57.6504L87.9609 59.0681C83.9513 61.6097 81.539 65.8508 81.522 70.3947C81.5179 71.4187 81.5098 72.4312 81.4936 73.3399C81.423 77.3958 84.0414 82.9133 90.1987 82.9133C96.356 82.9133 98.9744 77.395 98.9038 73.3399C98.8876 72.4312 98.8787 71.4187 98.8754 70.3947Z" fill="#DE6767"/>
<path d="M87.684 75.7177C87.684 76.636 86.9397 77.3806 86.0217 77.3806C85.1037 77.3806 84.3594 76.636 84.3594 75.7177C84.3594 74.7993 85.1037 74.0547 86.0217 74.0547C86.9397 74.0547 87.684 74.7993 87.684 75.7177Z" fill="#D65353"/>
<path d="M94.3732 77.3806C95.2913 77.3806 96.0355 76.6361 96.0355 75.7177C96.0355 74.7992 95.2913 74.0547 94.3732 74.0547C93.4552 74.0547 92.7109 74.7992 92.7109 75.7177C92.7109 76.6361 93.4552 77.3806 94.3732 77.3806Z" fill="#D65353"/>
<path d="M81.926 70.6141C81.926 70.6141 86.7773 66.7246 87.4088 62.0378C87.4088 62.0378 92.6919 70.2089 99.471 72.2398H101.631C101.631 72.2398 102.162 56.2515 89.8016 56.2539C82.1573 56.2555 79.2353 65.8274 79.7337 70.1156L81.926 70.6141Z" fill="#28364F"/>
<path d="M82.6301 71.033C83.8582 72.6294 83.8119 74.7252 82.5279 75.7142C81.243 76.7032 79.2057 76.212 77.9777 74.6156C76.7496 73.0192 76.7959 70.9234 78.0799 69.9344C79.3648 68.9454 81.4021 69.4366 82.6301 71.033Z" fill="#DE6767"/>
<path d="M78.4531 71.6437C78.4531 71.6437 80.7794 69.8816 82.341 73.7045" stroke="#6E3C3C" stroke-width="0.5" stroke-miterlimit="10"/>
<path d="M79.9844 73.2391L80.3034 71.2383" stroke="#6E3C3C" stroke-width="0.5" stroke-miterlimit="10"/>
<path d="M97.7666 71.033C96.5386 72.6294 96.5848 74.7252 97.8697 75.7142C99.1546 76.7032 101.192 76.212 102.42 74.6156C103.648 73.0192 103.602 70.9234 102.318 69.9344C101.032 68.9454 98.9947 69.4366 97.7666 71.033Z" fill="#DE6767"/>
<path d="M101.943 71.6437C101.943 71.6437 99.6163 69.8816 98.0547 73.7045" stroke="#6E3C3C" stroke-width="0.5" stroke-miterlimit="10"/>
<path d="M100.413 73.2391L100.094 71.2383" stroke="#6E3C3C" stroke-width="0.5" stroke-miterlimit="10"/>
<path d="M86.5387 70.7988C85.887 70.7988 85.3594 71.3274 85.3594 71.9787C85.3594 72.0932 85.3813 72.202 85.4113 72.3067L86.24 72.1443L85.7417 72.8434C85.9519 73.0375 86.2303 73.1585 86.5387 73.1585C87.1905 73.1585 87.7181 72.6299 87.7181 71.9787C87.7181 71.3274 87.1897 70.7988 86.5387 70.7988Z" fill="#28364F"/>
<path d="M93.8512 70.7988C94.503 70.7988 95.0306 71.3274 95.0306 71.9787C95.0306 72.0932 95.0095 72.202 94.9786 72.3067L94.1499 72.1443L94.6483 72.8434C94.4381 73.0375 94.1597 73.1585 93.8512 73.1585C93.1995 73.1585 92.6719 72.6299 92.6719 71.9787C92.6719 71.3274 93.1995 70.7988 93.8512 70.7988Z" fill="#28364F"/>
<path d="M84.7188 70.0163C84.7188 70.0163 86.6789 68.8194 88.2406 70.0163" stroke="#28364F" stroke-miterlimit="10"/>
<path d="M95.6703 70.0163C95.6703 70.0163 93.7101 68.8194 92.1484 70.0163" stroke="#28364F" stroke-miterlimit="10"/>
<path d="M90.2085 70.582L91.0193 74.5373H89.3984" stroke="#6E3C3C" stroke-width="0.5" stroke-miterlimit="10"/>
<path d="M87.3438 76.0996H93.0441C93.0441 76.0996 92.5652 79.6895 90.1943 79.6895C87.8235 79.6895 87.3438 76.0996 87.3438 76.0996Z" fill="#6E3C3C"/>
<path d="M90.1924 77.6699C89.3532 77.6699 88.5942 77.877 88.0391 78.2099C88.4701 78.991 89.147 79.6894 90.1924 79.6894C91.2387 79.6894 91.9156 78.9902 92.3458 78.2099C91.7906 77.877 91.0317 77.6699 90.1924 77.6699Z" fill="#943232"/>
<path d="M112.859 145.807L109.375 207.437C102.493 209.631 93.3224 207.46 83.5531 208.246C73.7839 209.032 66.806 210.229 59.8281 209.631L67.5373 145.807H112.859Z" fill="#6E3C3C"/>
<path d="M61.3125 197.357L110.215 192.604L111.207 175.061H64.0056L61.3125 197.357Z" fill="#1B2536"/>
<path d="M145.05 189.732H43.0961C39.1814 189.732 36.0078 186.557 36.0078 182.64V120.042C36.0078 116.126 39.1814 112.951 43.0961 112.951H145.05C148.964 112.951 152.138 116.126 152.138 120.042V182.64C152.138 186.557 148.964 189.732 145.05 189.732Z" fill="#4A75C9"/>
<path d="M57.3945 166.154H50.2656V175.06H57.3945V166.154Z" fill="#BEDCE0"/>
<path d="M73.4961 155.141H66.3672V175.06H73.4961V155.141Z" fill="#BEDCE0"/>
<path d="M89.5898 147.016H82.4609V175.06H89.5898V147.016Z" fill="#BEDCE0"/>
<path d="M105.684 142.504H98.5547V175.059H105.684V142.504Z" fill="#BEDCE0"/>
<path d="M121.785 131.221H114.656V175.058H121.785V131.221Z" fill="#BEDCE0"/>
<path d="M137.879 151.045H130.75V175.06H137.879V151.045Z" fill="#BEDCE0"/>
<path d="M57.3945 146.557H50.2656V175.059H57.3945V146.557Z" stroke="#28364F" stroke-width="0.5971" stroke-miterlimit="10"/>
<path d="M73.4961 151.045H66.3672V175.06H73.4961V151.045Z" stroke="#28364F" stroke-width="0.5481" stroke-miterlimit="10"/>
<path d="M89.5898 135.221H82.4609V175.059H89.5898V135.221Z" stroke="#28364F" stroke-width="0.7059" stroke-miterlimit="10"/>
<path d="M105.684 131.797H98.5547V175.059H105.684V131.797Z" stroke="#28364F" stroke-width="0.7356" stroke-miterlimit="10"/>
<path d="M121.785 124.451H114.656V175.059H121.785V124.451Z" stroke="#28364F" stroke-width="0.7956" stroke-miterlimit="10"/>
<path d="M137.879 139.381H130.75V175.059H137.879V139.381Z" stroke="#28364F" stroke-width="0.6681" stroke-miterlimit="10"/>
<path d="M43.0859 175.059H145.063" stroke="#28364F" stroke-width="0.5481" stroke-miterlimit="10"/>
<path d="M365.239 220.969L375.607 279.481H369.371L353.875 220.969H365.239Z" fill="#BEDCE0"/>
<path d="M355.357 226.563L367.392 233.121L365.239 220.969H353.875L355.357 226.563Z" fill="#A4CACF"/>
<path d="M343.505 220.969L353.871 279.481H347.637L332.141 220.969H343.505Z" fill="#BEDCE0"/>
<path d="M333.623 226.563L345.657 233.121L343.505 220.969H332.141L333.623 226.563Z" fill="#A4CACF"/>
<path d="M286.485 220.969L276.117 279.481H282.352L297.849 220.969H286.485Z" fill="#BEDCE0"/>
<path d="M296.364 226.563L284.328 233.121L286.481 220.969H297.846L296.364 226.563Z" fill="#A4CACF"/>
<path d="M308.219 220.969L297.852 279.481H304.087L319.582 220.969H308.219Z" fill="#BEDCE0"/>
<path d="M318.098 226.563L306.062 233.121L308.216 220.969H319.579L318.098 226.563Z" fill="#A4CACF"/>
<path d="M310.609 215.413H364.306L382.15 145.993C382.604 144.225 381.27 142.504 379.445 142.504H331.515C330.24 142.504 329.128 143.367 328.81 144.601L310.609 215.413Z" fill="#BEDCE0"/>
<path d="M371.105 188.961L314.668 199.624L310.609 215.413H364.306L371.105 188.961Z" fill="#A4CACF"/>
<path d="M282.32 220.97H369.372C369.372 212.064 362.155 204.844 353.253 204.844H298.44C289.537 204.844 282.32 212.063 282.32 220.97Z" fill="#BEDCE0"/>
<path d="M0.59375 279.438H398.732" stroke="#28364F" stroke-width="1.3993" stroke-miterlimit="10"/>
<path d="M339.091 259.244L338.905 268.179C338.886 269.128 339.045 270.073 339.377 270.964L341.462 276.568C341.98 277.959 340.951 279.439 339.468 279.439H318.03C316.772 279.439 316.28 277.806 317.328 277.111L326.843 270.791C328.195 269.893 328.975 268.348 328.895 266.726L328.525 259.245H339.091V259.244Z" fill="#946351"/>
<path d="M327.902 269.801C327.605 270.178 327.254 270.516 326.843 270.789L317.328 277.109C316.28 277.805 316.772 279.438 318.03 279.438H339.468C340.951 279.438 341.98 277.957 341.462 276.566L339.917 272.415L334.488 273.281C333.028 273.514 331.59 272.922 330.62 271.806C329.772 270.833 328.698 270.186 327.902 269.801Z" fill="#28364F"/>
<path d="M310.038 255.141L311.899 263.88C312.097 264.809 312.469 265.693 312.995 266.483L316.307 271.463C317.128 272.698 316.466 274.374 315.022 274.714L294.152 279.619C292.928 279.907 292.074 278.43 292.936 277.513L300.754 269.183C301.865 267.999 302.271 266.318 301.822 264.757L299.752 257.559L310.038 255.141Z" fill="#946351"/>
<path d="M301.559 267.978C301.355 268.413 301.091 268.823 300.754 269.183L292.936 277.513C292.074 278.43 292.928 279.907 294.152 279.619L315.022 274.714C316.466 274.375 317.128 272.699 316.307 271.463L313.855 267.775L308.767 269.861C307.4 270.421 305.865 270.174 304.664 269.31C303.616 268.556 302.422 268.172 301.559 267.978Z" fill="#28364F"/>
<path d="M325.918 67.5775C325.908 67.4322 330.024 61.8383 331.02 58.8469C332.017 55.8555 329.787 54.16 325.918 54.5587C325.918 54.5587 327.482 49.4732 322.747 49.5722C318.012 49.6721 316.566 50.7164 314.074 49.5706C311.583 48.4249 308.093 49.4228 307.545 52.2648C306.997 55.1068 310.251 60.2184 312.879 62.9849C316.666 66.9742 325.918 67.5775 325.918 67.5775Z" fill="#1B2536"/>
<path d="M306.781 133.574H333.398L329.118 78.0918H313.9L306.781 133.574Z" fill="#D4B5A5"/>
<path d="M293.306 89.1536L275.678 113.363L257.07 118.15V136.898L273.719 132.928C279.591 131.529 284.919 128.427 289.036 124.011L301.197 110.97L308.829 80.25L304.463 81.4469C299.977 82.6763 296.044 85.394 293.306 89.1536Z" fill="#415780"/>
<path d="M273.364 113.957L271.296 133.573L263.32 135.407L265.311 116.029L273.364 113.957Z" fill="#28364F"/>
<path d="M289.032 124.01L300.304 111.922L298.935 94.2148L285.719 127.076C286.892 126.14 288 125.117 289.032 124.01Z" fill="#28364F"/>
<path d="M342.935 136.898L341.14 261.089H324.145L319.666 156.377H316.418L305.852 201.055L312.22 254.676L295.884 258.496L285.309 213.546C283.383 205.361 283.56 196.821 285.824 188.722L300.311 136.898H342.935Z" fill="#415780"/>
<path d="M293.211 162.145L315.953 158.22L316.419 156.261H319.667L319.723 157.57L342.692 153.605L342.934 136.898H300.311L293.211 162.145Z" fill="#28364F"/>
<path d="M338.883 145.244L337.57 261.088" stroke="#1B2536" stroke-width="0.6175" stroke-miterlimit="10"/>
<path d="M312.506 154.951L301.469 200.191L309.236 255.374" stroke="#1B2536" stroke-width="0.6175" stroke-miterlimit="10"/>
<path d="M319.664 136.582V156.377" stroke="#1B2536" stroke-width="0.6175" stroke-miterlimit="10"/>
<path d="M315.867 137.379V145.176C315.867 147.725 317.227 150.082 319.434 151.357L319.664 151.489" stroke="#1B2536" stroke-width="0.6175" stroke-miterlimit="10"/>
<path d="M308.492 155.181L325.838 154.184" stroke="#1B2536" stroke-width="0.6175" stroke-miterlimit="10"/>
<path d="M336.62 133.574H302.711V138.361H336.62V133.574Z" fill="#6E4C2E"/>
<path d="M321.823 133.574H313.711V138.361H321.823V133.574Z" fill="#1B2536"/>
<path d="M323.245 56.6523C323.245 56.6523 321.202 62.4866 325.688 64.3314L326.435 74.8525L319.159 79.2406L315.52 76.548V73.4063C315.52 73.4063 309.34 72.1599 311.782 62.9851L311.582 58.6474C311.582 58.6474 318.76 59.6446 323.245 56.6523Z" fill="#946351"/>
<path d="M329.835 67.0172C328.85 68.8483 326.725 69.6173 325.089 68.7362C323.452 67.8552 322.925 65.6563 323.91 63.8261C324.895 61.995 327.02 61.2261 328.657 62.1071C330.293 62.9881 330.82 65.187 329.835 67.0172Z" fill="#946351"/>
<path d="M324.83 66.8176C324.382 64.0251 327.696 61.6565 329.117 64.3491" stroke="#422424" stroke-width="0.655" stroke-miterlimit="10"/>
<path d="M327.411 65.6631L326.156 63.6055" stroke="#422424" stroke-width="0.655" stroke-miterlimit="10"/>
<path d="M315.898 73.523C317.909 74.1214 321.132 73.9387 323.408 72.0605" stroke="#422424" stroke-width="0.655" stroke-miterlimit="10"/>
<path d="M327.439 76.7852L324.153 142.196C323.883 147.56 328.157 152.056 333.526 152.056H347.715L342.797 131.446L348.329 97.4936C349.156 92.4194 346.699 87.3745 342.196 84.8987L327.439 76.7852Z" fill="#415780"/>
<path d="M337.617 105.916L342.934 129.833L344.894 117.806L337.617 105.916Z" fill="#28364F"/>
<path d="M313.953 78.8438L309.978 143.246C309.672 148.197 305.569 152.056 300.611 152.056H292.422L299.599 127.591L298.043 94.2709C297.745 87.8846 301.914 82.1445 308.077 80.4556L313.953 78.8438Z" fill="#415780"/>
<path d="M311.211 80.6855L309.217 83.2068C306.869 86.1739 306.188 90.1291 307.404 93.7116L308.942 98.2377L306.317 103.275C304.877 106.039 304.658 109.279 305.716 112.211L309.74 123.368" stroke="#28364F" stroke-width="0.655" stroke-miterlimit="10"/>
<path d="M329.178 79.7754L330.862 82.7571C332.509 85.6746 332.757 89.1775 331.538 92.2981L329.178 98.3361L331.267 101.859C333.142 105.021 333.337 108.906 331.789 112.241L326.438 123.765" stroke="#28364F" stroke-width="0.655" stroke-miterlimit="10"/>
<path d="M297.875 90.7578L298.939 113.39" stroke="#1B2536" stroke-width="0.6175" stroke-miterlimit="10"/>
<path d="M306.749 135.109L297.836 138.855L298.621 140.725L307.534 136.979L306.749 135.109Z" fill="white"/>
<path d="M338.242 138.828L329.328 135.082L328.543 136.951L337.457 140.697L338.242 138.828Z" fill="white"/>
<path d="M317.284 82.5167L319.153 79.2402L321.447 82.5167L320.699 85.0241L322.942 122.67L318.356 130.449L313.953 122.67L318.106 85.0241L317.284 82.5167Z" fill="white"/>
<path d="M357.668 170.92H355.31C352.282 170.92 349.393 172.191 347.346 174.424L340.258 182.156H372.721L365.633 174.424C363.586 172.191 360.696 170.92 357.668 170.92Z" stroke="#D65353" stroke-width="2" stroke-miterlimit="10"/>
<path d="M380.544 180.094H332.43V196.581H380.544V180.094Z" fill="#D65353"/>
<path d="M380.544 196.582H332.43V214.664H380.544V196.582Z" fill="#1B2536"/>
<path d="M372.284 192.527H369.094V207.586H372.284V192.527Z" stroke="white" stroke-width="0.655" stroke-miterlimit="10"/>
<path d="M343.877 192.527H340.688V207.586H343.877V192.527Z" stroke="white" stroke-width="0.655" stroke-miterlimit="10"/>
<path d="M314.312 62.8761L315.028 63.0913C315.054 63.0027 315.072 62.911 315.072 62.8135C315.072 62.263 314.625 61.8164 314.075 61.8164C313.525 61.8164 313.078 62.263 313.078 62.8135C313.078 63.3641 313.525 63.8107 314.075 63.8107C314.383 63.8107 314.655 63.6678 314.838 63.4477L314.312 62.8761Z" fill="#1B2536"/>
<path d="M319.476 62.8761L320.192 63.0913C320.218 63.0027 320.236 62.911 320.236 62.8135C320.236 62.263 319.789 61.8164 319.239 61.8164C318.689 61.8164 318.242 62.263 318.242 62.8135C318.242 63.3641 318.689 63.8107 319.239 63.8107C319.547 63.8107 319.819 63.6678 320.002 63.4477L319.476 62.8761Z" fill="#1B2536"/>
<path d="M316.082 61.4219L316.332 63.0012L315.92 64.9817C315.789 65.6102 316.269 66.1997 316.91 66.1997H318.237" stroke="#422424" stroke-width="0.655" stroke-miterlimit="10"/>
<path d="M315.555 67.5272C315.555 67.5272 317.64 68.3027 319.852 66.8184" stroke="#422424" stroke-width="0.655" stroke-miterlimit="10"/>
<path d="M317.391 60.3644C317.391 60.3644 319.085 60.0015 320.536 60.3644" stroke="#1B2536" stroke-miterlimit="10"/>
<path d="M312.5 60.3644C312.5 60.3644 314.194 60.0015 315.645 60.3644" stroke="#1B2536" stroke-miterlimit="10"/>
<path d="M319.156 79.2398L327.264 74.3418L329.783 77.5955L322.03 83.3453L319.156 79.2398Z" fill="#B3988B"/>
<path d="M319.156 79.2398L316.639 83.6522L312.203 79.2398L314.52 75.8984L319.156 79.2398Z" fill="#B3988B"/>
<path d="M352.753 163.009L352.94 165.186L351.327 168.674C350.947 169.497 351.547 170.438 352.455 170.438L352.283 172.169C352.162 173.376 353.11 174.424 354.324 174.424H359.786C361.044 174.424 362.005 173.303 361.814 172.06L360.777 165.302L360.877 163.008H352.753V163.009Z" fill="#946351"/>
<path d="M352.386 95.632L363.31 122.599C365.207 127.283 366.012 132.339 365.661 137.382L363.801 164.157H350.377L349.712 135.835L337.617 105.918L341.046 84.2656L343.472 85.5997C347.509 87.8189 350.657 91.3617 352.386 95.632Z" fill="#415780"/>
<path d="M269.565 192.526H144.461V112.662C144.461 108.745 147.635 105.57 151.549 105.57H262.476C266.391 105.57 269.565 108.745 269.565 112.662V192.526Z" fill="#415780"/>
<path d="M262.476 279.483H151.549C147.635 279.483 144.461 276.308 144.461 272.392V192.527H269.565V272.392C269.565 276.308 266.391 279.483 262.476 279.483Z" fill="#6E9296"/>
<path d="M174.699 143.658H154.641V182.447H185.084V154.048L174.699 143.658Z" fill="#1B2536"/>
<path d="M173.214 142.121H153.156V180.91H183.599V152.511L173.214 142.121Z" fill="white"/>
<path d="M173.211 142.121V152.511H183.596L173.211 142.121Z" fill="#D9B59E"/>
<path d="M166.609 150.727H156.938V152.51H166.609V150.727Z" fill="#415780"/>
<path d="M179.822 155.395H156.938V156.286H179.822V155.395Z" fill="#415780"/>
<path d="M179.822 158.547H156.938V159.438H179.822V158.547Z" fill="#415780"/>
<path d="M179.822 161.699H156.938V162.591H179.822V161.699Z" fill="#415780"/>
<path d="M179.822 164.852H156.938V165.743H179.822V164.852Z" fill="#415780"/>
<path d="M179.822 168.002H156.938V168.894H179.822V168.002Z" fill="#415780"/>
<path d="M166.609 171.154H156.938V172.046H166.609V171.154Z" fill="#415780"/>
<path d="M212.59 143.658H192.531V182.447H222.975V154.048L212.59 143.658Z" fill="#1B2536"/>
<path d="M211.106 142.121H191.047V180.91H221.491V152.511L211.106 142.121Z" fill="white"/>
<path d="M211.109 142.121V152.511H221.495L211.109 142.121Z" fill="#D9B59E"/>
<path d="M204.499 150.727H194.828V152.51H204.499V150.727Z" fill="#415780"/>
<path d="M217.713 155.395H194.828V156.286H217.713V155.395Z" fill="#415780"/>
<path d="M217.713 158.547H194.828V159.438H217.713V158.547Z" fill="#415780"/>
<path d="M217.713 161.699H194.828V162.591H217.713V161.699Z" fill="#415780"/>
<path d="M217.713 164.852H194.828V165.743H217.713V164.852Z" fill="#415780"/>
<path d="M217.713 168.002H194.828V168.894H217.713V168.002Z" fill="#415780"/>
<path d="M204.499 171.154H194.828V172.046H204.499V171.154Z" fill="#415780"/>
<path d="M250.488 143.658H230.43V182.447H260.873V154.048L250.488 143.658Z" fill="#1B2536"/>
<path d="M249.004 142.121H228.945V180.91H259.389V152.511L249.004 142.121Z" fill="white"/>
<path d="M249.008 142.121V152.511H259.393L249.008 142.121Z" fill="#D9B59E"/>
<path d="M242.398 150.727H232.727V152.51H242.398V150.727Z" fill="#415780"/>
<path d="M255.612 155.395H232.727V156.286H255.612V155.395Z" fill="#415780"/>
<path d="M255.612 158.547H232.727V159.438H255.612V158.547Z" fill="#415780"/>
<path d="M255.612 161.699H232.727V162.591H255.612V161.699Z" fill="#415780"/>
<path d="M255.612 164.852H232.727V165.743H255.612V164.852Z" fill="#415780"/>
<path d="M255.612 168.002H232.727V168.894H255.612V168.002Z" fill="#415780"/>
<path d="M242.398 171.154H232.727V172.046H242.398V171.154Z" fill="#415780"/>
<path d="M256.814 222.789H159.793C157.552 222.789 155.734 220.971 155.734 218.729V208.685C155.734 206.443 157.552 204.625 159.793 204.625H256.814C259.055 204.625 260.873 206.443 260.873 208.685V218.729C260.873 220.971 259.055 222.789 256.814 222.789Z" fill="#496163"/>
<path d="M255.525 220.969H158.504C156.262 220.969 154.445 219.152 154.445 216.909V206.865C154.445 204.623 156.262 202.805 158.504 202.805H255.525C257.766 202.805 259.584 204.623 259.584 206.865V216.909C259.584 219.151 257.766 220.969 255.525 220.969Z" fill="white"/>
<path d="M171.517 217.736C174.749 216.32 176.222 212.551 174.806 209.318C173.391 206.085 169.623 204.611 166.391 206.028C163.159 207.444 161.687 211.213 163.102 214.446C164.518 217.679 168.285 219.153 171.517 217.736Z" fill="#D9B59E"/>
<path d="M179.477 208.244H251.465" stroke="#28364F" stroke-width="0.75" stroke-miterlimit="10" stroke-linecap="round" stroke-linejoin="round"/>
<path d="M179.477 211.887H251.465" stroke="#28364F" stroke-width="0.75" stroke-miterlimit="10" stroke-linecap="round" stroke-linejoin="round"/>
<path d="M179.477 215.527H251.465" stroke="#28364F" stroke-width="0.75" stroke-miterlimit="10" stroke-linecap="round" stroke-linejoin="round"/>
<path d="M256.814 245.996H159.793C157.552 245.996 155.734 244.178 155.734 241.936V231.892C155.734 229.65 157.552 227.832 159.793 227.832H256.814C259.055 227.832 260.873 229.65 260.873 231.892V241.936C260.873 244.179 259.055 245.996 256.814 245.996Z" fill="#496163"/>
<path d="M255.525 244.176H158.504C156.262 244.176 154.445 242.359 154.445 240.116V230.072C154.445 227.83 156.262 226.012 158.504 226.012H255.525C257.766 226.012 259.584 227.83 259.584 230.072V240.116C259.584 242.359 257.766 244.176 255.525 244.176Z" fill="white"/>
<path d="M171.517 240.943C174.749 239.527 176.222 235.758 174.806 232.525C173.391 229.292 169.623 227.819 166.391 229.235C163.159 230.651 161.687 234.42 163.102 237.653C164.518 240.887 168.285 242.36 171.517 240.943Z" fill="#D9B59E"/>
<path d="M179.477 231.453H251.465" stroke="#28364F" stroke-width="0.75" stroke-miterlimit="10" stroke-linecap="round" stroke-linejoin="round"/>
<path d="M179.477 235.094H251.465" stroke="#28364F" stroke-width="0.75" stroke-miterlimit="10" stroke-linecap="round" stroke-linejoin="round"/>
<path d="M179.477 238.736H251.465" stroke="#28364F" stroke-width="0.75" stroke-miterlimit="10" stroke-linecap="round" stroke-linejoin="round"/>
<path d="M256.814 269.204H159.793C157.552 269.204 155.734 267.385 155.734 265.144V255.099C155.734 252.857 157.552 251.039 159.793 251.039H256.814C259.055 251.039 260.873 252.857 260.873 255.099V265.144C260.873 267.385 259.055 269.204 256.814 269.204Z" fill="#496163"/>
<path d="M255.525 267.383H158.504C156.262 267.383 154.445 265.566 154.445 263.323V253.279C154.445 251.037 156.262 249.219 158.504 249.219H255.525C257.766 249.219 259.584 251.037 259.584 253.279V263.323C259.584 265.566 257.766 267.383 255.525 267.383Z" fill="white"/>
<path d="M171.517 264.15C174.749 262.734 176.222 258.965 174.806 255.732C173.391 252.499 169.623 251.026 166.391 252.442C163.159 253.858 161.687 257.627 163.102 260.86C164.518 264.094 168.285 265.567 171.517 264.15Z" fill="#D9B59E"/>
<path d="M179.477 254.658H251.465" stroke="#28364F" stroke-width="0.75" stroke-miterlimit="10" stroke-linecap="round" stroke-linejoin="round"/>
<path d="M179.477 258.301H251.465" stroke="#28364F" stroke-width="0.75" stroke-miterlimit="10" stroke-linecap="round" stroke-linejoin="round"/>
<path d="M179.477 261.941H251.465" stroke="#28364F" stroke-width="0.75" stroke-miterlimit="10" stroke-linecap="round" stroke-linejoin="round"/>
<path d="M275.099 218.807H242.107C240.042 218.807 238.367 217.132 238.367 215.066V192.032C238.367 189.966 240.042 188.291 242.107 188.291H275.099C277.164 188.291 278.839 189.966 278.839 192.032V215.066C278.839 217.132 277.165 218.807 275.099 218.807Z" fill="#D65353"/>
<path d="M275.052 191.799H242.156V214.337H275.052V191.799Z" fill="white"/>
<path d="M256.25 194.924H272.199" stroke="#415780" stroke-width="0.8713" stroke-miterlimit="10"/>
<path d="M256.25 197.982H272.199" stroke="#415780" stroke-width="0.8713" stroke-miterlimit="10"/>
<path d="M253.434 201.488L251.902 196.359C251.43 194.777 249.975 193.693 248.325 193.693H234.262C232.389 193.693 231.324 195.213 231.883 197.087L237.356 215.412C237.916 217.286 239.889 218.805 241.762 218.805H275.449C277.323 218.805 278.388 217.286 277.828 215.412L274.466 204.152C273.993 202.57 272.539 201.486 270.889 201.486H253.434V201.488Z" fill="#EBBC3B"/>
<path d="M386.086 35.709H350.023C346.109 35.709 342.934 38.8839 342.934 42.8002V55.4731C342.934 55.8994 342.732 56.2997 342.389 56.5522L335.208 61.8359C334.635 62.2573 334.933 63.1668 335.645 63.1668H341.596C342.335 63.1668 342.934 63.7668 342.934 64.5066V72.6842C342.934 76.6005 346.108 79.7754 350.023 79.7754H386.086C390.001 79.7754 393.175 76.6005 393.175 72.6842V42.801C393.175 38.8839 390.001 35.709 386.086 35.709Z" stroke="#BEDCE0" stroke-width="1.1437" stroke-miterlimit="10"/>
<path d="M377.422 45.2143L381.11 48.904L386.227 43.7852" stroke="#4A75C9" stroke-width="1.144" stroke-miterlimit="10" stroke-linecap="round" stroke-linejoin="round"/>
<path d="M373.037 48.5674H350.774C349.967 48.5674 349.312 47.9129 349.312 47.105C349.312 46.297 349.967 45.6426 350.774 45.6426H373.037C373.844 45.6426 374.499 46.297 374.499 47.105C374.499 47.9121 373.844 48.5674 373.037 48.5674Z" fill="#EBBC3B"/>
<path d="M377.422 56.6116L381.11 60.3013L386.227 55.1816" stroke="#4A75C9" stroke-width="1.144" stroke-miterlimit="10" stroke-linecap="round" stroke-linejoin="round"/>
<path d="M373.037 59.9639H350.774C349.967 59.9639 349.312 59.3086 349.312 58.5015C349.312 57.6935 349.967 57.0391 350.774 57.0391H373.037C373.844 57.0391 374.499 57.6935 374.499 58.5015C374.499 59.3094 373.844 59.9639 373.037 59.9639Z" fill="#EBBC3B"/>
<path d="M377.422 68.0073L381.11 71.6978L386.227 66.5781" stroke="#4A75C9" stroke-width="1.144" stroke-miterlimit="10" stroke-linecap="round" stroke-linejoin="round"/>
<path d="M373.037 71.3604H350.774C349.967 71.3604 349.312 70.7059 349.312 69.898C349.312 69.09 349.967 68.4355 350.774 68.4355H373.037C373.844 68.4355 374.499 69.09 374.499 69.898C374.499 70.7059 373.844 71.3604 373.037 71.3604Z" fill="#EBBC3B"/>
<path d="M277.402 32.2531H336.428C338.55 32.2531 340.27 30.5325 340.27 28.41V19.0809C340.27 4.18881 327.51 -6.71473 314.927 5.65122C304.117 -4.72046 291.358 5.25252 291.358 14.9592C282.677 12.023 275.228 17.193 273.608 27.7823C273.25 30.1265 275.031 32.2531 277.402 32.2531Z" fill="#BEDCE0"/>
<path d="M255.867 132.239H144.94C141.025 132.239 137.852 129.065 137.852 125.148V52.3752C137.852 48.4589 141.025 45.2832 144.94 45.2832H255.867C259.782 45.2832 262.955 48.4581 262.955 52.3752V125.148C262.955 129.064 259.782 132.239 255.867 132.239Z" fill="#EBBC3B"/>
<path d="M177.879 120.254C195.265 120.254 209.359 106.154 209.359 88.761C209.359 71.3677 195.265 57.2676 177.879 57.2676C160.493 57.2676 146.398 71.3677 146.398 88.761C146.398 106.154 160.493 120.254 177.879 120.254Z" fill="white"/>
<path d="M208.789 82.7814C205.997 68.2483 193.225 57.2676 177.883 57.2676V88.761L208.789 82.7814Z" fill="#D65353"/>
<path d="M209.363 88.7608C209.363 86.7154 209.161 84.7179 208.789 82.7812L177.883 88.7608L180.982 120.101C196.913 118.543 209.363 105.108 209.363 88.7608Z" fill="#4A75C9"/>
<path d="M177.878 88.7617L148.169 78.3438C147.027 81.6056 146.398 85.1093 146.398 88.7617C146.398 106.155 160.493 120.255 177.879 120.255C178.925 120.255 179.958 120.202 180.978 120.102L177.878 88.7617Z" fill="#6E9296"/>
<path d="M148.172 78.3439L177.881 88.7618L153.542 68.7891C151.229 71.6059 149.402 74.8344 148.172 78.3439Z" fill="#415780"/>
<path d="M220.549 67.6137C220.549 69.5048 219.016 71.0379 217.126 71.0379C215.236 71.0379 213.703 69.5048 213.703 67.6137C213.703 65.7225 215.236 64.1895 217.126 64.1895C219.016 64.1895 220.549 65.7225 220.549 67.6137Z" fill="#D65353"/>
<path d="M222.773 67.6133H249.2" stroke="white" stroke-width="0.8416" stroke-miterlimit="10"/>
<path d="M220.549 78.1879C220.549 80.079 219.016 81.6113 217.126 81.6113C215.236 81.6113 213.703 80.0782 213.703 78.1879C213.703 76.2967 215.236 74.7637 217.126 74.7637C219.016 74.7637 220.549 76.2967 220.549 78.1879Z" fill="#4A75C9"/>
<path d="M222.773 78.1875H249.2" stroke="white" stroke-width="0.8416" stroke-miterlimit="10"/>
<path d="M220.549 88.7601C220.549 90.6513 219.016 92.1835 217.126 92.1835C215.236 92.1835 213.703 90.6505 213.703 88.7601C213.703 86.869 215.236 85.3359 217.126 85.3359C219.016 85.3367 220.549 86.869 220.549 88.7601Z" fill="#6E9296"/>
<path d="M222.773 88.7598H249.2" stroke="white" stroke-width="0.8416" stroke-miterlimit="10"/>
<path d="M220.549 99.3344C220.549 101.226 219.016 102.758 217.126 102.758C215.236 102.758 213.703 101.225 213.703 99.3344C213.703 97.4432 215.236 95.9102 217.126 95.9102C219.016 95.9102 220.549 97.4432 220.549 99.3344Z" fill="#415780"/>
<path d="M222.773 99.334H249.2" stroke="white" stroke-width="0.8416" stroke-miterlimit="10"/>
<path d="M220.549 109.909C220.549 111.8 219.016 113.333 217.126 113.333C215.236 113.333 213.703 111.8 213.703 109.909C213.703 108.017 215.236 106.484 217.126 106.484C219.016 106.484 220.549 108.017 220.549 109.909Z" fill="white"/>
<path d="M222.773 109.908H249.2" stroke="white" stroke-width="0.8416" stroke-miterlimit="10"/>
<path d="M49.574 109.563L57.0664 109.037C57.814 108.984 58.469 109.533 58.5486 110.278L59.055 115.028C59.1597 116.013 58.3886 116.872 57.3984 116.872H50.7939C49.9652 116.872 49.2623 116.262 49.1446 115.441L48.4961 110.897C48.4011 110.223 48.8962 109.61 49.574 109.563Z" fill="#DE6767"/>
<path d="M50.4141 110.586L51.6324 116.87" stroke="#6E3C3C" stroke-width="0.5" stroke-miterlimit="10"/>
<path d="M53.0391 110.586L54.2582 116.87" stroke="#6E3C3C" stroke-width="0.5" stroke-miterlimit="10"/>
<path d="M55.6719 110.586L56.8902 116.87" stroke="#6E3C3C" stroke-width="0.5" stroke-miterlimit="10"/>
<path d="M130.827 109.563L123.334 109.037C122.587 108.984 121.932 109.533 121.852 110.278L121.345 115.028C121.241 116.013 122.012 116.872 123.002 116.872H129.607C130.435 116.872 131.138 116.262 131.256 115.441L131.904 110.897C131.999 110.223 131.504 109.61 130.827 109.563Z" fill="#DE6767"/>
<path d="M129.984 110.586L128.766 116.87" stroke="#6E3C3C" stroke-width="0.5" stroke-miterlimit="10"/>
<path d="M127.359 110.586L126.141 116.87" stroke="#6E3C3C" stroke-width="0.5" stroke-miterlimit="10"/>
<path d="M124.727 110.586L123.508 116.87" stroke="#6E3C3C" stroke-width="0.5" stroke-miterlimit="10"/>
<path d="M263.542 50.1593L259.125 54.5781L283.185 78.6477L287.602 74.2289L263.542 50.1593Z" fill="#4A75C9"/>
<path d="M259.125 54.5751L261.531 56.9819C263.433 56.1439 265.218 54.9511 266.777 53.3913L263.543 50.1562L259.125 54.5751Z" fill="#1B2536"/>
<path d="M272.44 59.0597L268.023 63.4785L283.186 78.6474L287.603 74.2286L272.44 59.0597Z" fill="#1B2536"/>
<path d="M250.316 58.595C259.84 58.595 267.561 50.8707 267.561 41.3424C267.561 31.8141 259.84 24.0898 250.316 24.0898C240.791 24.0898 233.07 31.8141 233.07 41.3424C233.07 50.8707 240.791 58.595 250.316 58.595Z" fill="#4A75C9"/>
<path d="M259.457 32.1954C264.506 37.2477 264.506 45.4383 259.457 50.4898C254.407 55.5421 246.219 55.5421 241.17 50.4898C236.12 45.4375 236.12 37.2469 241.17 32.1954C246.219 27.1432 254.407 27.1432 259.457 32.1954Z" fill="white"/>
<path d="M243.094 48.5674C242.768 48.241 242.468 47.8983 242.195 47.541" stroke="#BEDCE0" stroke-width="1.7467" stroke-miterlimit="10"/>
<path d="M240.889 45.2838C239.341 41.5738 240.076 37.1362 243.093 34.1172" stroke="#BEDCE0" stroke-width="1.7467" stroke-miterlimit="10"/>
<path d="M147.151 56.8557H117.598C116.44 56.8557 115.325 57.2966 114.481 58.0883L107.962 64.2002C107.114 64.9951 105.727 64.3934 105.727 63.2315V21.9291C105.727 18.0128 108.9 14.8379 112.815 14.8379H147.151C151.065 14.8379 154.239 18.0128 154.239 21.9291V49.7636C154.24 53.6807 151.066 56.8557 147.151 56.8557Z" fill="#6E9296"/>
<path d="M144.908 26.2984H115.055C114.27 26.2984 113.633 25.6618 113.633 24.8758C113.633 24.0906 114.269 23.4531 115.055 23.4531H144.907C145.692 23.4531 146.329 24.0897 146.329 24.8758C146.329 25.6618 145.693 26.2984 144.908 26.2984Z" stroke="white" stroke-width="0.6815" stroke-miterlimit="10"/>
<path d="M144.908 33.6128H115.055C114.27 33.6128 113.633 32.9762 113.633 32.1902C113.633 31.405 114.269 30.7676 115.055 30.7676H144.907C145.692 30.7676 146.329 31.4042 146.329 32.1902C146.329 32.9754 145.693 33.6128 144.908 33.6128Z" stroke="white" stroke-width="0.6815" stroke-miterlimit="10"/>
<path d="M144.908 40.9253H115.055C114.27 40.9253 113.633 40.2887 113.633 39.5027C113.633 38.7167 114.269 38.0801 115.055 38.0801H144.907C145.692 38.0801 146.329 38.7167 146.329 39.5027C146.329 40.2887 145.693 40.9253 144.908 40.9253Z" stroke="white" stroke-width="0.6815" stroke-miterlimit="10"/>
<path d="M144.908 48.2378H115.055C114.27 48.2378 113.633 47.6012 113.633 46.8152C113.633 46.03 114.269 45.3926 115.055 45.3926H144.907C145.692 45.3926 146.329 46.0292 146.329 46.8152C146.329 47.6012 145.693 48.2378 144.908 48.2378Z" stroke="white" stroke-width="0.6815" stroke-miterlimit="10"/>
</svg>
