<svg width="487" height="381" viewBox="0 0 487 381" fill="none" xmlns="http://www.w3.org/2000/svg">
<g clip-path="url(#clip0_1928_3097)">
<path d="M487 0H0V406H487V0Z" fill="white"/>
<path d="M125.706 140.298H71.5633C69.6169 140.298 68.0391 138.719 68.0391 136.772V128.215C68.0391 114.555 79.7433 104.554 91.2852 115.897C101.201 106.383 112.904 115.53 112.904 124.434C120.866 121.74 127.7 126.483 129.185 136.196C129.515 138.348 127.881 140.298 125.706 140.298Z" fill="#BEDCE0"/>
<path d="M90.6166 281.969L80.25 340.481H86.4844L101.981 281.969H90.6166Z" fill="#BEDCE0"/>
<path d="M100.496 287.563L88.4609 294.121L90.6143 281.969H101.978L100.496 287.563Z" fill="#A4CACF"/>
<path d="M112.352 281.969L101.984 340.481H108.22L123.716 281.969H112.352Z" fill="#BEDCE0"/>
<path d="M122.231 287.563L110.195 294.121L112.349 281.969H123.713L122.231 287.563Z" fill="#A4CACF"/>
<path d="M169.371 281.969L179.739 340.481H173.503L158.008 281.969H169.371Z" fill="#BEDCE0"/>
<path d="M159.489 287.563L171.524 294.121L169.371 281.969H158.008L159.489 287.563Z" fill="#A4CACF"/>
<path d="M147.638 281.969L158.005 340.481H151.77L136.273 281.969H147.638Z" fill="#BEDCE0"/>
<path d="M137.756 287.563L149.791 294.121L147.638 281.969H136.273L137.756 287.563Z" fill="#A4CACF"/>
<path d="M145.247 276.413H91.5504L73.7067 206.993C73.2521 205.225 74.5865 203.504 76.4111 203.504H124.342C125.616 203.504 126.729 204.367 127.046 205.601L145.247 276.413Z" fill="#BEDCE0"/>
<path d="M84.75 249.961L141.188 260.624L145.246 276.413H91.5501L84.75 249.961Z" fill="#A4CACF"/>
<path d="M173.543 281.97H86.4922C86.4922 273.064 93.7087 265.844 102.612 265.844H157.425C166.326 265.844 173.543 273.063 173.543 281.97Z" fill="#BEDCE0"/>
<path d="M156.468 266.492L152.573 318.234L158.308 331.522L167.227 340.461L158.366 340.475C156.28 340.478 154.262 339.73 152.682 338.368L146.614 333.136L146.626 340.449L144.234 340.453L142.266 328.521C142.104 327.535 142.145 326.527 142.385 325.558L144.596 316.652L140.266 265.865L156.468 266.492Z" fill="#DE6767"/>
<path d="M144.23 340.452L146.622 340.449L146.611 333.136L152.678 338.368C154.258 339.731 156.276 340.478 158.362 340.475L167.223 340.461L158.305 331.522L155.434 324.872L149.893 328.61L143.264 321.998L142.38 325.557C142.139 326.527 142.1 327.535 142.262 328.52L144.23 340.452Z" fill="#1B2536"/>
<path d="M107.605 266.497L100.819 318.233L92.3379 331.53L81.5703 340.483H90.4313C92.5173 340.483 94.6901 339.732 96.5521 338.367L103.702 333.125L102.181 340.438H104.574L109.005 328.503C109.372 327.517 109.54 326.508 109.499 325.54L109.126 316.637L123.943 265.844L107.605 266.497Z" fill="#DE6767"/>
<path d="M104.574 340.438H102.181L103.702 333.126L96.5521 338.367C94.6901 339.732 92.5173 340.483 90.4313 340.483H81.5703L92.3379 331.53L96.5821 324.875L101.352 328.604L109.349 321.982L109.498 325.54C109.539 326.509 109.371 327.517 109.005 328.503L104.574 340.438Z" fill="#1B2536"/>
<path d="M148.624 133.24C148.839 137.748 151.93 139.593 155.27 142.684C158.609 145.775 158.545 152.647 155.02 155.698C150.585 159.537 126.693 157.193 123.072 156.844C117.888 156.346 113.923 152.667 115.844 146.174C117.29 141.287 126.108 136.374 126.726 131.115L148.624 133.24Z" fill="#28364F"/>
<path d="M169.858 175.195L163.145 159.939C161.271 155.68 157.613 152.466 153.149 151.156L145.58 148.936H128.811L121.242 151.156C116.778 152.466 113.12 155.68 111.246 159.939L104.533 175.195H96.7578L98.0435 184.661C98.7342 189.749 103.077 193.544 108.21 193.544C112.226 193.544 115.872 191.201 117.541 187.549L120.682 180.679L122.775 187.46L114.534 206.807H159.856L151.616 187.461L153.709 180.68L156.85 187.549C158.519 191.202 162.165 193.544 166.18 193.544C171.313 193.544 175.657 189.75 176.347 184.662L177.633 175.196L169.858 175.195Z" fill="#6E3C3C"/>
<path d="M115.352 160.623L120.679 180.68" stroke="#1B2536" stroke-width="0.6759" stroke-miterlimit="10"/>
<path d="M106.828 175.826L113.541 185.533" stroke="#1B2536" stroke-width="0.6759" stroke-miterlimit="10"/>
<path d="M159.039 160.623L153.711 180.68" stroke="#1B2536" stroke-width="0.6759" stroke-miterlimit="10"/>
<path d="M167.563 175.826L160.852 185.533" stroke="#1B2536" stroke-width="0.6759" stroke-miterlimit="10"/>
<path d="M129.391 155.416H145.008L137.2 184.469L129.391 155.416Z" fill="white"/>
<path d="M128.813 148.936L138.682 186.962L129.912 176.373C128.12 174.207 127.542 171.282 128.378 168.597L129.397 165.323L126.468 161.071C124.28 157.894 124.563 153.629 127.152 150.77L128.813 148.936Z" fill="#D9956A"/>
<path d="M145.58 148.936L135.711 186.962L144.48 176.373C146.273 174.207 146.851 171.282 146.015 168.597L144.996 165.323L147.925 161.071C150.113 157.894 149.83 153.629 147.241 150.77L145.58 148.936Z" fill="#D9956A"/>
<path d="M141.794 146.003L141.354 139.66H137.198H133.041L132.601 146.003C132.532 146.995 131.879 147.849 130.941 148.176L128.758 148.936L131.026 157.815H137.198H143.369L145.637 148.936L143.454 148.176C142.516 147.849 141.862 146.994 141.794 146.003Z" fill="#DE6767"/>
<path d="M141.723 144.971L141.354 139.658H137.198H133.041L132.82 142.838C134.23 144.361 136.244 145.414 138.932 145.414C139.963 145.414 140.886 145.248 141.723 144.971Z" fill="#28364F"/>
<path d="M145.875 131.395C145.858 126.851 143.446 122.61 139.436 120.068L137.199 118.65L134.961 120.068C130.951 122.61 128.539 126.851 128.522 131.395C128.518 132.419 128.51 133.431 128.494 134.34C128.423 138.396 131.041 143.913 137.199 143.913C143.356 143.913 145.974 138.395 145.904 134.34C145.888 133.431 145.879 132.419 145.875 131.395Z" fill="#DE6767"/>
<path d="M134.684 136.718C134.684 137.636 133.94 138.381 133.022 138.381C132.104 138.381 131.359 137.636 131.359 136.718C131.359 135.799 132.104 135.055 133.022 135.055C133.94 135.055 134.684 135.799 134.684 136.718Z" fill="#D65353"/>
<path d="M141.373 138.381C142.291 138.381 143.036 137.636 143.036 136.718C143.036 135.799 142.291 135.055 141.373 135.055C140.455 135.055 139.711 135.799 139.711 136.718C139.711 137.636 140.455 138.381 141.373 138.381Z" fill="#D65353"/>
<path d="M128.926 131.614C128.926 131.614 133.777 127.725 134.409 123.038C134.409 123.038 139.692 131.209 146.471 133.24H148.631C148.631 133.24 149.162 117.251 136.802 117.254C129.157 117.256 126.235 126.827 126.734 131.116L128.926 131.614Z" fill="#28364F"/>
<path d="M129.63 132.033C130.858 133.629 130.812 135.725 129.528 136.714C128.243 137.703 126.206 137.212 124.978 135.616C123.75 134.019 123.796 131.923 125.08 130.934C126.365 129.945 128.402 130.437 129.63 132.033Z" fill="#DE6767"/>
<path d="M125.453 132.644C125.453 132.644 127.779 130.882 129.341 134.705" stroke="#6E3C3C" stroke-width="0.5" stroke-miterlimit="10"/>
<path d="M126.984 134.239L127.303 132.238" stroke="#6E3C3C" stroke-width="0.5" stroke-miterlimit="10"/>
<path d="M144.767 132.033C143.539 133.629 143.585 135.725 144.87 136.714C146.155 137.703 148.192 137.212 149.42 135.616C150.648 134.019 150.602 131.923 149.318 130.934C148.032 129.945 145.995 130.437 144.767 132.033Z" fill="#DE6767"/>
<path d="M148.943 132.644C148.943 132.644 146.616 130.882 145.055 134.705" stroke="#6E3C3C" stroke-width="0.5" stroke-miterlimit="10"/>
<path d="M147.413 134.239L147.094 132.238" stroke="#6E3C3C" stroke-width="0.5" stroke-miterlimit="10"/>
<path d="M133.539 131.799C132.887 131.799 132.359 132.327 132.359 132.979C132.359 133.093 132.381 133.202 132.411 133.307L133.24 133.144L132.742 133.843C132.952 134.038 133.23 134.158 133.539 134.158C134.19 134.158 134.718 133.63 134.718 132.979C134.718 132.327 134.19 131.799 133.539 131.799Z" fill="#28364F"/>
<path d="M140.851 131.799C141.503 131.799 142.031 132.327 142.031 132.979C142.031 133.093 142.009 133.202 141.979 133.307L141.15 133.144L141.648 133.843C141.438 134.038 141.16 134.158 140.851 134.158C140.199 134.158 139.672 133.63 139.672 132.979C139.672 132.327 140.199 131.799 140.851 131.799Z" fill="#28364F"/>
<path d="M131.719 131.016C131.719 131.016 133.679 129.819 135.241 131.016" stroke="#28364F" stroke-miterlimit="10"/>
<path d="M142.67 131.016C142.67 131.016 140.71 129.819 139.148 131.016" stroke="#28364F" stroke-miterlimit="10"/>
<path d="M137.208 131.582L138.019 135.537H136.398" stroke="#6E3C3C" stroke-width="0.5" stroke-miterlimit="10"/>
<path d="M134.344 137.1H140.044C140.044 137.1 139.565 140.689 137.194 140.689C134.823 140.689 134.344 137.1 134.344 137.1Z" fill="#6E3C3C"/>
<path d="M137.192 138.67C136.353 138.67 135.594 138.877 135.039 139.21C135.47 139.991 136.147 140.689 137.192 140.689C138.239 140.689 138.916 139.99 139.346 139.21C138.791 138.877 138.032 138.67 137.192 138.67Z" fill="#943232"/>
<path d="M159.859 206.807L156.375 268.437C149.493 270.631 140.322 268.46 130.553 269.246C120.784 270.032 113.806 271.229 106.828 270.631L114.537 206.807H159.859Z" fill="#6E3C3C"/>
<path d="M108.312 258.357L157.215 253.604L158.207 236.061H111.006L108.312 258.357Z" fill="#1B2536"/>
<path d="M192.05 250.732H90.0961C86.1814 250.732 83.0078 247.557 83.0078 243.64V181.042C83.0078 177.126 86.1814 173.951 90.0961 173.951H192.05C195.964 173.951 199.138 177.126 199.138 181.042V243.64C199.138 247.557 195.964 250.732 192.05 250.732Z" fill="#4A75C9"/>
<path d="M104.394 227.154H97.2656V236.06H104.394V227.154Z" fill="#BEDCE0"/>
<path d="M120.496 216.141H113.367V236.06H120.496V216.141Z" fill="#BEDCE0"/>
<path d="M136.59 208.016H129.461V236.06H136.59V208.016Z" fill="#BEDCE0"/>
<path d="M152.684 203.504H145.555V236.059H152.684V203.504Z" fill="#BEDCE0"/>
<path d="M168.785 192.221H161.656V236.058H168.785V192.221Z" fill="#BEDCE0"/>
<path d="M184.879 212.045H177.75V236.06H184.879V212.045Z" fill="#BEDCE0"/>
<path d="M104.394 207.557H97.2656V236.059H104.394V207.557Z" stroke="#28364F" stroke-width="0.5971" stroke-miterlimit="10"/>
<path d="M120.496 212.045H113.367V236.06H120.496V212.045Z" stroke="#28364F" stroke-width="0.5481" stroke-miterlimit="10"/>
<path d="M136.59 196.221H129.461V236.059H136.59V196.221Z" stroke="#28364F" stroke-width="0.7059" stroke-miterlimit="10"/>
<path d="M152.684 192.797H145.555V236.059H152.684V192.797Z" stroke="#28364F" stroke-width="0.7356" stroke-miterlimit="10"/>
<path d="M168.785 185.451H161.656V236.059H168.785V185.451Z" stroke="#28364F" stroke-width="0.7956" stroke-miterlimit="10"/>
<path d="M184.879 200.381H177.75V236.059H184.879V200.381Z" stroke="#28364F" stroke-width="0.6681" stroke-miterlimit="10"/>
<path d="M90.0859 236.059H192.063" stroke="#28364F" stroke-width="0.5481" stroke-miterlimit="10"/>
<path d="M412.239 281.969L422.607 340.481H416.371L400.875 281.969H412.239Z" fill="#BEDCE0"/>
<path d="M402.357 287.563L414.392 294.121L412.239 281.969H400.875L402.357 287.563Z" fill="#A4CACF"/>
<path d="M390.505 281.969L400.871 340.481H394.637L379.141 281.969H390.505Z" fill="#BEDCE0"/>
<path d="M380.623 287.563L392.657 294.121L390.505 281.969H379.141L380.623 287.563Z" fill="#A4CACF"/>
<path d="M333.485 281.969L323.117 340.481H329.352L344.849 281.969H333.485Z" fill="#BEDCE0"/>
<path d="M343.364 287.563L331.328 294.121L333.481 281.969H344.846L343.364 287.563Z" fill="#A4CACF"/>
<path d="M355.219 281.969L344.852 340.481H351.087L366.582 281.969H355.219Z" fill="#BEDCE0"/>
<path d="M365.098 287.563L353.062 294.121L355.216 281.969H366.579L365.098 287.563Z" fill="#A4CACF"/>
<path d="M357.609 276.413H411.306L429.15 206.993C429.604 205.225 428.27 203.504 426.445 203.504H378.515C377.24 203.504 376.128 204.367 375.81 205.601L357.609 276.413Z" fill="#BEDCE0"/>
<path d="M418.105 249.961L361.668 260.624L357.609 276.413H411.306L418.105 249.961Z" fill="#A4CACF"/>
<path d="M329.32 281.97H416.372C416.372 273.064 409.155 265.844 400.253 265.844H345.44C336.537 265.844 329.32 273.063 329.32 281.97Z" fill="#BEDCE0"/>
<path d="M47.5938 340.438H445.732" stroke="#28364F" stroke-width="1.3993" stroke-miterlimit="10"/>
<path d="M386.091 320.244L385.905 329.179C385.886 330.128 386.045 331.073 386.377 331.964L388.462 337.568C388.98 338.959 387.951 340.439 386.468 340.439H365.03C363.772 340.439 363.28 338.806 364.328 338.111L373.843 331.791C375.195 330.893 375.975 329.348 375.895 327.726L375.525 320.245H386.091V320.244Z" fill="#946351"/>
<path d="M374.902 330.801C374.605 331.178 374.254 331.516 373.843 331.789L364.328 338.109C363.28 338.805 363.772 340.438 365.03 340.438H386.468C387.951 340.438 388.98 338.957 388.462 337.566L386.917 333.415L381.488 334.281C380.028 334.514 378.59 333.922 377.62 332.806C376.772 331.833 375.698 331.186 374.902 330.801Z" fill="#28364F"/>
<path d="M357.038 316.141L358.899 324.88C359.097 325.809 359.469 326.693 359.995 327.483L363.307 332.463C364.128 333.698 363.466 335.374 362.022 335.714L341.152 340.619C339.928 340.907 339.074 339.43 339.936 338.513L347.754 330.183C348.865 328.999 349.271 327.318 348.822 325.757L346.752 318.559L357.038 316.141Z" fill="#946351"/>
<path d="M348.559 328.978C348.355 329.413 348.091 329.823 347.754 330.183L339.936 338.513C339.074 339.43 339.928 340.907 341.152 340.619L362.022 335.714C363.466 335.375 364.128 333.699 363.307 332.463L360.855 328.775L355.767 330.861C354.4 331.421 352.865 331.174 351.664 330.31C350.616 329.556 349.422 329.172 348.559 328.978Z" fill="#28364F"/>
<path d="M372.918 128.578C372.908 128.432 377.024 122.838 378.02 119.847C379.017 116.855 376.787 115.16 372.918 115.559C372.918 115.559 374.482 110.473 369.747 110.572C365.012 110.672 363.566 111.716 361.074 110.571C358.583 109.425 355.093 110.423 354.545 113.265C353.997 116.107 357.251 121.218 359.879 123.985C363.666 127.974 372.918 128.578 372.918 128.578Z" fill="#1B2536"/>
<path d="M353.781 194.574H380.398L376.118 139.092H360.9L353.781 194.574Z" fill="#D4B5A5"/>
<path d="M340.306 150.154L322.678 174.363L304.07 179.15V197.898L320.719 193.928C326.591 192.529 331.919 189.427 336.036 185.011L348.197 171.97L355.829 141.25L351.463 142.447C346.977 143.676 343.044 146.394 340.306 150.154Z" fill="#415780"/>
<path d="M320.364 174.957L318.296 194.573L310.32 196.407L312.311 177.029L320.364 174.957Z" fill="#28364F"/>
<path d="M336.032 185.01L347.304 172.922L345.935 155.215L332.719 188.076C333.892 187.14 335 186.117 336.032 185.01Z" fill="#28364F"/>
<path d="M389.935 197.898L388.14 322.089H371.145L366.666 217.377H363.418L352.852 262.055L359.22 315.676L342.884 319.496L332.309 274.546C330.383 266.361 330.56 257.821 332.824 249.722L347.311 197.898H389.935Z" fill="#415780"/>
<path d="M340.211 223.145L362.953 219.22L363.419 217.261H366.667L366.723 218.57L389.692 214.605L389.934 197.898H347.311L340.211 223.145Z" fill="#28364F"/>
<path d="M385.883 206.244L384.57 322.088" stroke="#1B2536" stroke-width="0.6175" stroke-miterlimit="10"/>
<path d="M359.506 215.951L348.469 261.191L356.236 316.374" stroke="#1B2536" stroke-width="0.6175" stroke-miterlimit="10"/>
<path d="M366.664 197.582V217.377" stroke="#1B2536" stroke-width="0.6175" stroke-miterlimit="10"/>
<path d="M362.867 198.379V206.176C362.867 208.725 364.227 211.082 366.434 212.357L366.664 212.489" stroke="#1B2536" stroke-width="0.6175" stroke-miterlimit="10"/>
<path d="M355.492 216.181L372.838 215.184" stroke="#1B2536" stroke-width="0.6175" stroke-miterlimit="10"/>
<path d="M383.62 194.574H349.711V199.361H383.62V194.574Z" fill="#6E4C2E"/>
<path d="M368.823 194.574H360.711V199.361H368.823V194.574Z" fill="#1B2536"/>
<path d="M370.245 117.652C370.245 117.652 368.202 123.487 372.688 125.331L373.435 135.853L366.159 140.241L362.52 137.548V134.406C362.52 134.406 356.34 133.16 358.782 123.985L358.582 119.647C358.582 119.647 365.76 120.645 370.245 117.652Z" fill="#946351"/>
<path d="M376.835 128.017C375.85 129.848 373.725 130.617 372.089 129.736C370.452 128.855 369.925 126.656 370.91 124.826C371.895 122.995 374.02 122.226 375.657 123.107C377.293 123.988 377.82 126.187 376.835 128.017Z" fill="#946351"/>
<path d="M371.83 127.818C371.382 125.025 374.696 122.657 376.117 125.349" stroke="#422424" stroke-width="0.655" stroke-miterlimit="10"/>
<path d="M374.411 126.663L373.156 124.605" stroke="#422424" stroke-width="0.655" stroke-miterlimit="10"/>
<path d="M362.898 134.523C364.909 135.121 368.132 134.939 370.408 133.061" stroke="#422424" stroke-width="0.655" stroke-miterlimit="10"/>
<path d="M374.439 137.785L371.153 203.196C370.883 208.56 375.157 213.056 380.526 213.056H394.715L389.797 192.446L395.329 158.494C396.156 153.419 393.699 148.374 389.196 145.899L374.439 137.785Z" fill="#415780"/>
<path d="M384.617 166.916L389.934 190.833L391.894 178.806L384.617 166.916Z" fill="#28364F"/>
<path d="M360.953 139.844L356.978 204.246C356.672 209.197 352.569 213.056 347.611 213.056H339.422L346.599 188.591L345.043 155.271C344.745 148.885 348.914 143.145 355.077 141.456L360.953 139.844Z" fill="#415780"/>
<path d="M358.211 141.686L356.217 144.207C353.869 147.174 353.188 151.129 354.404 154.712L355.942 159.238L353.317 164.275C351.877 167.039 351.658 170.279 352.716 173.211L356.74 184.368" stroke="#28364F" stroke-width="0.655" stroke-miterlimit="10"/>
<path d="M376.178 140.775L377.862 143.757C379.509 146.675 379.757 150.178 378.538 153.298L376.178 159.336L378.267 162.859C380.142 166.021 380.337 169.906 378.789 173.241L373.438 184.765" stroke="#28364F" stroke-width="0.655" stroke-miterlimit="10"/>
<path d="M344.875 151.758L345.939 174.39" stroke="#1B2536" stroke-width="0.6175" stroke-miterlimit="10"/>
<path d="M353.749 196.109L344.836 199.855L345.621 201.725L354.534 197.979L353.749 196.109Z" fill="white"/>
<path d="M385.242 199.828L376.328 196.082L375.543 197.951L384.457 201.697L385.242 199.828Z" fill="white"/>
<path d="M364.284 143.517L366.153 140.24L368.447 143.517L367.699 146.024L369.942 183.67L365.356 191.449L360.953 183.67L365.106 146.024L364.284 143.517Z" fill="white"/>
<path d="M404.668 231.92H402.31C399.282 231.92 396.393 233.191 394.346 235.424L387.258 243.156H419.721L412.633 235.424C410.586 233.191 407.696 231.92 404.668 231.92Z" stroke="#D65353" stroke-width="2" stroke-miterlimit="10"/>
<path d="M427.544 241.094H379.43V257.581H427.544V241.094Z" fill="#D65353"/>
<path d="M427.544 257.582H379.43V275.664H427.544V257.582Z" fill="#1B2536"/>
<path d="M419.284 253.527H416.094V268.586H419.284V253.527Z" stroke="white" stroke-width="0.655" stroke-miterlimit="10"/>
<path d="M390.877 253.527H387.688V268.586H390.877V253.527Z" stroke="white" stroke-width="0.655" stroke-miterlimit="10"/>
<path d="M361.312 123.876L362.028 124.091C362.054 124.003 362.072 123.911 362.072 123.814C362.072 123.263 361.625 122.816 361.075 122.816C360.525 122.816 360.078 123.263 360.078 123.814C360.078 124.364 360.525 124.811 361.075 124.811C361.383 124.811 361.655 124.668 361.838 124.448L361.312 123.876Z" fill="#1B2536"/>
<path d="M366.476 123.876L367.192 124.091C367.218 124.003 367.236 123.911 367.236 123.814C367.236 123.263 366.789 122.816 366.239 122.816C365.689 122.816 365.242 123.263 365.242 123.814C365.242 124.364 365.689 124.811 366.239 124.811C366.547 124.811 366.819 124.668 367.002 124.448L366.476 123.876Z" fill="#1B2536"/>
<path d="M363.082 122.422L363.332 124.001L362.92 125.982C362.789 126.61 363.269 127.2 363.91 127.2H365.237" stroke="#422424" stroke-width="0.655" stroke-miterlimit="10"/>
<path d="M362.555 128.527C362.555 128.527 364.64 129.303 366.852 127.818" stroke="#422424" stroke-width="0.655" stroke-miterlimit="10"/>
<path d="M364.391 121.364C364.391 121.364 366.085 121.001 367.536 121.364" stroke="#1B2536" stroke-miterlimit="10"/>
<path d="M359.5 121.364C359.5 121.364 361.194 121.001 362.645 121.364" stroke="#1B2536" stroke-miterlimit="10"/>
<path d="M366.156 140.24L374.264 135.342L376.783 138.595L369.03 144.345L366.156 140.24Z" fill="#B3988B"/>
<path d="M366.156 140.24L363.639 144.652L359.203 140.24L361.52 136.898L366.156 140.24Z" fill="#B3988B"/>
<path d="M399.753 224.009L399.94 226.186L398.327 229.674C397.947 230.497 398.547 231.438 399.455 231.438L399.283 233.169C399.162 234.376 400.11 235.424 401.324 235.424H406.786C408.044 235.424 409.005 234.303 408.814 233.06L407.777 226.302L407.877 224.008H399.753V224.009Z" fill="#946351"/>
<path d="M399.386 156.632L410.31 183.599C412.207 188.283 413.012 193.339 412.661 198.382L410.801 225.157H397.377L396.712 196.835L384.617 166.918L388.046 145.266L390.472 146.6C394.509 148.819 397.657 152.362 399.386 156.632Z" fill="#415780"/>
<path d="M316.565 253.526H191.461V173.662C191.461 169.745 194.635 166.57 198.549 166.57H309.476C313.391 166.57 316.565 169.745 316.565 173.662V253.526Z" fill="#415780"/>
<path d="M309.476 340.483H198.549C194.635 340.483 191.461 337.308 191.461 333.392V253.527H316.565V333.392C316.565 337.308 313.391 340.483 309.476 340.483Z" fill="#6E9296"/>
<path d="M221.699 204.658H201.641V243.447H232.084V215.048L221.699 204.658Z" fill="#1B2536"/>
<path d="M220.214 203.121H200.156V241.91H230.599V213.511L220.214 203.121Z" fill="white"/>
<path d="M220.211 203.121V213.511H230.596L220.211 203.121Z" fill="#D9B59E"/>
<path d="M213.609 211.727H203.938V213.51H213.609V211.727Z" fill="#415780"/>
<path d="M226.822 216.395H203.938V217.286H226.822V216.395Z" fill="#415780"/>
<path d="M226.822 219.547H203.938V220.438H226.822V219.547Z" fill="#415780"/>
<path d="M226.822 222.699H203.938V223.591H226.822V222.699Z" fill="#415780"/>
<path d="M226.822 225.852H203.938V226.743H226.822V225.852Z" fill="#415780"/>
<path d="M226.822 229.002H203.938V229.894H226.822V229.002Z" fill="#415780"/>
<path d="M213.609 232.154H203.938V233.046H213.609V232.154Z" fill="#415780"/>
<path d="M259.59 204.658H239.531V243.447H269.975V215.048L259.59 204.658Z" fill="#1B2536"/>
<path d="M258.106 203.121H238.047V241.91H268.491V213.511L258.106 203.121Z" fill="white"/>
<path d="M258.109 203.121V213.511H268.495L258.109 203.121Z" fill="#D9B59E"/>
<path d="M251.499 211.727H241.828V213.51H251.499V211.727Z" fill="#415780"/>
<path d="M264.713 216.395H241.828V217.286H264.713V216.395Z" fill="#415780"/>
<path d="M264.713 219.547H241.828V220.438H264.713V219.547Z" fill="#415780"/>
<path d="M264.713 222.699H241.828V223.591H264.713V222.699Z" fill="#415780"/>
<path d="M264.713 225.852H241.828V226.743H264.713V225.852Z" fill="#415780"/>
<path d="M264.713 229.002H241.828V229.894H264.713V229.002Z" fill="#415780"/>
<path d="M251.499 232.154H241.828V233.046H251.499V232.154Z" fill="#415780"/>
<path d="M297.488 204.658H277.43V243.447H307.873V215.048L297.488 204.658Z" fill="#1B2536"/>
<path d="M296.004 203.121H275.945V241.91H306.389V213.511L296.004 203.121Z" fill="white"/>
<path d="M296.008 203.121V213.511H306.393L296.008 203.121Z" fill="#D9B59E"/>
<path d="M289.398 211.727H279.727V213.51H289.398V211.727Z" fill="#415780"/>
<path d="M302.612 216.395H279.727V217.286H302.612V216.395Z" fill="#415780"/>
<path d="M302.612 219.547H279.727V220.438H302.612V219.547Z" fill="#415780"/>
<path d="M302.612 222.699H279.727V223.591H302.612V222.699Z" fill="#415780"/>
<path d="M302.612 225.852H279.727V226.743H302.612V225.852Z" fill="#415780"/>
<path d="M302.612 229.002H279.727V229.894H302.612V229.002Z" fill="#415780"/>
<path d="M289.398 232.154H279.727V233.046H289.398V232.154Z" fill="#415780"/>
<path d="M303.814 283.789H206.793C204.552 283.789 202.734 281.971 202.734 279.729V269.685C202.734 267.443 204.552 265.625 206.793 265.625H303.814C306.055 265.625 307.873 267.443 307.873 269.685V279.729C307.873 281.971 306.055 283.789 303.814 283.789Z" fill="#496163"/>
<path d="M302.525 281.969H205.504C203.262 281.969 201.445 280.152 201.445 277.909V267.865C201.445 265.623 203.262 263.805 205.504 263.805H302.525C304.766 263.805 306.584 265.623 306.584 267.865V277.909C306.584 280.151 304.766 281.969 302.525 281.969Z" fill="white"/>
<path d="M218.517 278.736C221.749 277.32 223.222 273.551 221.806 270.318C220.391 267.085 216.623 265.611 213.391 267.028C210.159 268.444 208.687 272.213 210.102 275.446C211.518 278.679 215.285 280.153 218.517 278.736Z" fill="#D9B59E"/>
<path d="M226.477 269.244H298.465" stroke="#28364F" stroke-width="0.75" stroke-miterlimit="10" stroke-linecap="round" stroke-linejoin="round"/>
<path d="M226.477 272.887H298.465" stroke="#28364F" stroke-width="0.75" stroke-miterlimit="10" stroke-linecap="round" stroke-linejoin="round"/>
<path d="M226.477 276.527H298.465" stroke="#28364F" stroke-width="0.75" stroke-miterlimit="10" stroke-linecap="round" stroke-linejoin="round"/>
<path d="M303.814 306.996H206.793C204.552 306.996 202.734 305.178 202.734 302.936V292.892C202.734 290.65 204.552 288.832 206.793 288.832H303.814C306.055 288.832 307.873 290.65 307.873 292.892V302.936C307.873 305.179 306.055 306.996 303.814 306.996Z" fill="#496163"/>
<path d="M302.525 305.176H205.504C203.262 305.176 201.445 303.359 201.445 301.116V291.072C201.445 288.83 203.262 287.012 205.504 287.012H302.525C304.766 287.012 306.584 288.83 306.584 291.072V301.116C306.584 303.359 304.766 305.176 302.525 305.176Z" fill="white"/>
<path d="M218.517 301.943C221.749 300.527 223.222 296.758 221.806 293.525C220.391 290.292 216.623 288.819 213.391 290.235C210.159 291.651 208.687 295.42 210.102 298.653C211.518 301.887 215.285 303.36 218.517 301.943Z" fill="#D9B59E"/>
<path d="M226.477 292.453H298.465" stroke="#28364F" stroke-width="0.75" stroke-miterlimit="10" stroke-linecap="round" stroke-linejoin="round"/>
<path d="M226.477 296.094H298.465" stroke="#28364F" stroke-width="0.75" stroke-miterlimit="10" stroke-linecap="round" stroke-linejoin="round"/>
<path d="M226.477 299.736H298.465" stroke="#28364F" stroke-width="0.75" stroke-miterlimit="10" stroke-linecap="round" stroke-linejoin="round"/>
<path d="M303.814 330.204H206.793C204.552 330.204 202.734 328.385 202.734 326.144V316.099C202.734 313.857 204.552 312.039 206.793 312.039H303.814C306.055 312.039 307.873 313.857 307.873 316.099V326.144C307.873 328.385 306.055 330.204 303.814 330.204Z" fill="#496163"/>
<path d="M302.525 328.383H205.504C203.262 328.383 201.445 326.566 201.445 324.323V314.279C201.445 312.037 203.262 310.219 205.504 310.219H302.525C304.766 310.219 306.584 312.037 306.584 314.279V324.323C306.584 326.566 304.766 328.383 302.525 328.383Z" fill="white"/>
<path d="M218.517 325.15C221.749 323.734 223.222 319.965 221.806 316.732C220.391 313.499 216.623 312.026 213.391 313.442C210.159 314.858 208.687 318.627 210.102 321.86C211.518 325.094 215.285 326.567 218.517 325.15Z" fill="#D9B59E"/>
<path d="M226.477 315.658H298.465" stroke="#28364F" stroke-width="0.75" stroke-miterlimit="10" stroke-linecap="round" stroke-linejoin="round"/>
<path d="M226.477 319.301H298.465" stroke="#28364F" stroke-width="0.75" stroke-miterlimit="10" stroke-linecap="round" stroke-linejoin="round"/>
<path d="M226.477 322.941H298.465" stroke="#28364F" stroke-width="0.75" stroke-miterlimit="10" stroke-linecap="round" stroke-linejoin="round"/>
<path d="M322.099 279.807H289.107C287.042 279.807 285.367 278.132 285.367 276.066V253.032C285.367 250.966 287.042 249.291 289.107 249.291H322.099C324.164 249.291 325.839 250.966 325.839 253.032V276.066C325.839 278.132 324.165 279.807 322.099 279.807Z" fill="#D65353"/>
<path d="M322.052 252.799H289.156V275.337H322.052V252.799Z" fill="white"/>
<path d="M303.25 255.924H319.199" stroke="#415780" stroke-width="0.8713" stroke-miterlimit="10"/>
<path d="M303.25 258.982H319.199" stroke="#415780" stroke-width="0.8713" stroke-miterlimit="10"/>
<path d="M300.434 262.488L298.902 257.359C298.43 255.777 296.975 254.693 295.325 254.693H281.262C279.389 254.693 278.324 256.213 278.883 258.087L284.356 276.412C284.916 278.286 286.889 279.805 288.762 279.805H322.449C324.323 279.805 325.388 278.286 324.828 276.412L321.466 265.152C320.993 263.57 319.539 262.486 317.889 262.486H300.434V262.488Z" fill="#EBBC3B"/>
<path d="M433.086 96.709H397.023C393.109 96.709 389.934 99.8839 389.934 103.8V116.473C389.934 116.899 389.732 117.3 389.389 117.552L382.208 122.836C381.635 123.257 381.933 124.167 382.645 124.167H388.596C389.335 124.167 389.934 124.767 389.934 125.507V133.684C389.934 137.6 393.108 140.775 397.023 140.775H433.086C437.001 140.775 440.175 137.6 440.175 133.684V103.801C440.175 99.8839 437.001 96.709 433.086 96.709Z" stroke="#BEDCE0" stroke-width="1.1437" stroke-miterlimit="10"/>
<path d="M424.422 106.214L428.11 109.904L433.227 104.785" stroke="#4A75C9" stroke-width="1.144" stroke-miterlimit="10" stroke-linecap="round" stroke-linejoin="round"/>
<path d="M420.037 109.567H397.774C396.967 109.567 396.312 108.913 396.312 108.105C396.312 107.297 396.967 106.643 397.774 106.643H420.037C420.844 106.643 421.499 107.297 421.499 108.105C421.499 108.912 420.844 109.567 420.037 109.567Z" fill="#EBBC3B"/>
<path d="M424.422 117.612L428.11 121.301L433.227 116.182" stroke="#4A75C9" stroke-width="1.144" stroke-miterlimit="10" stroke-linecap="round" stroke-linejoin="round"/>
<path d="M420.037 120.964H397.774C396.967 120.964 396.312 120.309 396.312 119.501C396.312 118.694 396.967 118.039 397.774 118.039H420.037C420.844 118.039 421.499 118.694 421.499 119.501C421.499 120.309 420.844 120.964 420.037 120.964Z" fill="#EBBC3B"/>
<path d="M424.422 129.007L428.11 132.698L433.227 127.578" stroke="#4A75C9" stroke-width="1.144" stroke-miterlimit="10" stroke-linecap="round" stroke-linejoin="round"/>
<path d="M420.037 132.36H397.774C396.967 132.36 396.312 131.706 396.312 130.898C396.312 130.09 396.967 129.436 397.774 129.436H420.037C420.844 129.436 421.499 130.09 421.499 130.898C421.499 131.706 420.844 132.36 420.037 132.36Z" fill="#EBBC3B"/>
<path d="M324.402 93.2531H383.428C385.55 93.2531 387.27 91.5325 387.27 89.41V80.0809C387.27 65.1888 374.51 54.2853 361.927 66.6512C351.117 56.2795 338.358 66.2525 338.358 75.9592C329.677 73.023 322.228 78.193 320.608 88.7823C320.25 91.1265 322.031 93.2531 324.402 93.2531Z" fill="#BEDCE0"/>
<path d="M302.867 193.239H191.94C188.025 193.239 184.852 190.065 184.852 186.148V113.375C184.852 109.459 188.025 106.283 191.94 106.283H302.867C306.782 106.283 309.955 109.458 309.955 113.375V186.148C309.955 190.064 306.782 193.239 302.867 193.239Z" fill="#EBBC3B"/>
<path d="M224.879 181.254C242.265 181.254 256.359 167.154 256.359 149.761C256.359 132.368 242.265 118.268 224.879 118.268C207.493 118.268 193.398 132.368 193.398 149.761C193.398 167.154 207.493 181.254 224.879 181.254Z" fill="white"/>
<path d="M255.789 143.781C252.997 129.248 240.225 118.268 224.883 118.268V149.761L255.789 143.781Z" fill="#D65353"/>
<path d="M256.363 149.761C256.363 147.715 256.161 145.718 255.789 143.781L224.883 149.761L227.982 181.101C243.913 179.543 256.363 166.108 256.363 149.761Z" fill="#4A75C9"/>
<path d="M224.878 149.762L195.169 139.344C194.027 142.606 193.398 146.109 193.398 149.762C193.398 167.155 207.493 181.255 224.879 181.255C225.925 181.255 226.958 181.202 227.978 181.102L224.878 149.762Z" fill="#6E9296"/>
<path d="M195.172 139.344L224.881 149.762L200.542 129.789C198.229 132.606 196.402 135.834 195.172 139.344Z" fill="#415780"/>
<path d="M267.549 128.614C267.549 130.505 266.016 132.038 264.126 132.038C262.236 132.038 260.703 130.505 260.703 128.614C260.703 126.723 262.236 125.189 264.126 125.189C266.016 125.189 267.549 126.723 267.549 128.614Z" fill="#D65353"/>
<path d="M269.773 128.613H296.2" stroke="white" stroke-width="0.8416" stroke-miterlimit="10"/>
<path d="M267.549 139.188C267.549 141.079 266.016 142.611 264.126 142.611C262.236 142.611 260.703 141.078 260.703 139.188C260.703 137.297 262.236 135.764 264.126 135.764C266.016 135.764 267.549 137.297 267.549 139.188Z" fill="#4A75C9"/>
<path d="M269.773 139.188H296.2" stroke="white" stroke-width="0.8416" stroke-miterlimit="10"/>
<path d="M267.549 149.76C267.549 151.651 266.016 153.184 264.126 153.184C262.236 153.184 260.703 151.65 260.703 149.76C260.703 147.869 262.236 146.336 264.126 146.336C266.016 146.337 267.549 147.869 267.549 149.76Z" fill="#6E9296"/>
<path d="M269.773 149.76H296.2" stroke="white" stroke-width="0.8416" stroke-miterlimit="10"/>
<path d="M267.549 160.334C267.549 162.226 266.016 163.758 264.126 163.758C262.236 163.758 260.703 162.225 260.703 160.334C260.703 158.443 262.236 156.91 264.126 156.91C266.016 156.91 267.549 158.443 267.549 160.334Z" fill="#415780"/>
<path d="M269.773 160.334H296.2" stroke="white" stroke-width="0.8416" stroke-miterlimit="10"/>
<path d="M267.549 170.909C267.549 172.8 266.016 174.333 264.126 174.333C262.236 174.333 260.703 172.8 260.703 170.909C260.703 169.017 262.236 167.484 264.126 167.484C266.016 167.484 267.549 169.017 267.549 170.909Z" fill="white"/>
<path d="M269.773 170.908H296.2" stroke="white" stroke-width="0.8416" stroke-miterlimit="10"/>
<path d="M96.574 170.563L104.066 170.037C104.814 169.984 105.469 170.533 105.549 171.278L106.055 176.028C106.16 177.013 105.389 177.872 104.398 177.872H97.7939C96.9652 177.872 96.2623 177.262 96.1446 176.441L95.4961 171.897C95.4011 171.223 95.8962 170.61 96.574 170.563Z" fill="#DE6767"/>
<path d="M97.4141 171.586L98.6324 177.87" stroke="#6E3C3C" stroke-width="0.5" stroke-miterlimit="10"/>
<path d="M100.039 171.586L101.258 177.87" stroke="#6E3C3C" stroke-width="0.5" stroke-miterlimit="10"/>
<path d="M102.672 171.586L103.89 177.87" stroke="#6E3C3C" stroke-width="0.5" stroke-miterlimit="10"/>
<path d="M177.827 170.563L170.334 170.037C169.587 169.984 168.932 170.533 168.852 171.278L168.345 176.028C168.241 177.013 169.012 177.872 170.002 177.872H176.607C177.435 177.872 178.138 177.262 178.256 176.441L178.904 171.897C178.999 171.223 178.504 170.61 177.827 170.563Z" fill="#DE6767"/>
<path d="M176.984 171.586L175.766 177.87" stroke="#6E3C3C" stroke-width="0.5" stroke-miterlimit="10"/>
<path d="M174.359 171.586L173.141 177.87" stroke="#6E3C3C" stroke-width="0.5" stroke-miterlimit="10"/>
<path d="M171.727 171.586L170.508 177.87" stroke="#6E3C3C" stroke-width="0.5" stroke-miterlimit="10"/>
<path d="M310.542 111.159L306.125 115.578L330.185 139.648L334.602 135.229L310.542 111.159Z" fill="#4A75C9"/>
<path d="M306.125 115.575L308.531 117.982C310.433 117.144 312.218 115.951 313.777 114.391L310.543 111.156L306.125 115.575Z" fill="#1B2536"/>
<path d="M319.44 120.06L315.023 124.479L330.186 139.647L334.603 135.229L319.44 120.06Z" fill="#1B2536"/>
<path d="M297.316 119.595C306.84 119.595 314.561 111.871 314.561 102.342C314.561 92.8141 306.84 85.0898 297.316 85.0898C287.791 85.0898 280.07 92.8141 280.07 102.342C280.07 111.871 287.791 119.595 297.316 119.595Z" fill="#4A75C9"/>
<path d="M306.457 93.1954C311.506 98.2477 311.506 106.438 306.457 111.49C301.407 116.542 293.219 116.542 288.17 111.49C283.12 106.438 283.12 98.2469 288.17 93.1954C293.219 88.1432 301.407 88.1432 306.457 93.1954Z" fill="white"/>
<path d="M290.094 109.567C289.768 109.241 289.468 108.898 289.195 108.541" stroke="#BEDCE0" stroke-width="1.7467" stroke-miterlimit="10"/>
<path d="M287.889 106.284C286.341 102.574 287.076 98.1362 290.093 95.1172" stroke="#BEDCE0" stroke-width="1.7467" stroke-miterlimit="10"/>
<path d="M194.151 117.856H164.598C163.44 117.856 162.325 118.297 161.481 119.088L154.962 125.2C154.114 125.995 152.727 125.393 152.727 124.231V82.9291C152.727 79.0128 155.9 75.8379 159.815 75.8379H194.151C198.065 75.8379 201.239 79.0128 201.239 82.9291V110.764C201.24 114.681 198.066 117.856 194.151 117.856Z" fill="#6E9296"/>
<path d="M191.908 87.2984H162.055C161.27 87.2984 160.633 86.6618 160.633 85.8758C160.633 85.0906 161.269 84.4531 162.055 84.4531H191.907C192.692 84.4531 193.329 85.0897 193.329 85.8758C193.329 86.6618 192.693 87.2984 191.908 87.2984Z" stroke="white" stroke-width="0.6815" stroke-miterlimit="10"/>
<path d="M191.908 94.6128H162.055C161.27 94.6128 160.633 93.9762 160.633 93.1902C160.633 92.405 161.269 91.7676 162.055 91.7676H191.907C192.692 91.7676 193.329 92.4042 193.329 93.1902C193.329 93.9754 192.693 94.6128 191.908 94.6128Z" stroke="white" stroke-width="0.6815" stroke-miterlimit="10"/>
<path d="M191.908 101.925H162.055C161.27 101.925 160.633 101.289 160.633 100.503C160.633 99.7167 161.269 99.0801 162.055 99.0801H191.907C192.692 99.0801 193.329 99.7167 193.329 100.503C193.329 101.289 192.693 101.925 191.908 101.925Z" stroke="white" stroke-width="0.6815" stroke-miterlimit="10"/>
<path d="M191.908 109.238H162.055C161.27 109.238 160.633 108.601 160.633 107.815C160.633 107.03 161.269 106.393 162.055 106.393H191.907C192.692 106.393 193.329 107.029 193.329 107.815C193.329 108.601 192.693 109.238 191.908 109.238Z" stroke="white" stroke-width="0.6815" stroke-miterlimit="10"/>
</g>
<defs>
<clipPath id="clip0_1928_3097">
<rect width="487" height="381" fill="white"/>
</clipPath>
</defs>
</svg>
