<svg width="507" height="342" viewBox="0 0 507 342" fill="none" xmlns="http://www.w3.org/2000/svg">
<path d="M401.946 253.893H136.146C130.409 253.893 125.758 249.242 125.758 243.505V52.9255C125.758 47.1883 130.409 42.5371 136.146 42.5371H401.946C407.683 42.5371 412.334 47.1883 412.334 52.9255V243.504C412.334 249.242 407.683 253.893 401.946 253.893Z" fill="#CACAFF"/>
<path d="M192.141 135H181.352V161.296H192.141V135Z" fill="white"/>
<path d="M207.461 131.336H196.672V161.297H207.461V131.336Z" fill="#41BCBC"/>
<path d="M222.774 125.592H211.984V161.296H222.774V125.592Z" fill="#6A6AE2"/>
<path d="M238.086 112.451H227.297V161.298H238.086V112.451Z" fill="#171659"/>
<path d="M253.399 98.9668H242.609V161.297H253.399V98.9668Z" fill="white"/>
<path d="M268.711 105.918H257.922V161.297H268.711V105.918Z" fill="#41BCBC"/>
<path d="M284.024 101.576H273.234V161.296H284.024V101.576Z" fill="#6A6AE2"/>
<path d="M153.008 80.877V161.296H297.27" stroke="#130F40" stroke-width="0.75" stroke-miterlimit="10" stroke-linecap="round" stroke-linejoin="round"/>
<path d="M163.117 148.261L191.342 115.123L203.189 127.72L251.486 86.9447L266.958 101.058L291.001 82.3594" stroke="#6A6AE2" stroke-width="2" stroke-miterlimit="10" stroke-linecap="round" stroke-linejoin="round"/>
<path d="M290.997 83.8399C291.815 83.8399 292.479 83.1766 292.479 82.3584C292.479 81.5402 291.815 80.877 290.997 80.877C290.179 80.877 289.516 81.5402 289.516 82.3584C289.516 83.1766 290.179 83.8399 290.997 83.8399Z" fill="#130F40"/>
<path d="M164.594 148.26C164.594 149.078 163.931 149.741 163.113 149.741C162.296 149.741 161.633 149.078 161.633 148.26C161.633 147.441 162.296 146.779 163.113 146.779C163.931 146.779 164.594 147.441 164.594 148.26Z" fill="#130F40"/>
<path d="M219.563 183.699H153.008V218.457H219.563V183.699Z" fill="white"/>
<path d="M240.125 183.699H278.624" stroke="#6A6AE2" stroke-width="0.75" stroke-miterlimit="10" stroke-linecap="round" stroke-linejoin="round"/>
<path d="M240.125 190.65H297.272" stroke="#6A6AE2" stroke-width="0.75" stroke-miterlimit="10" stroke-linecap="round" stroke-linejoin="round"/>
<path d="M240.125 197.602H297.272" stroke="#6A6AE2" stroke-width="0.75" stroke-miterlimit="10" stroke-linecap="round" stroke-linejoin="round"/>
<path d="M240.125 204.555H297.272" stroke="#6A6AE2" stroke-width="0.75" stroke-miterlimit="10" stroke-linecap="round" stroke-linejoin="round"/>
<path d="M240.125 211.506H297.272" stroke="#6A6AE2" stroke-width="0.75" stroke-miterlimit="10" stroke-linecap="round" stroke-linejoin="round"/>
<path d="M240.125 218.457H297.272" stroke="#6A6AE2" stroke-width="0.75" stroke-miterlimit="10" stroke-linecap="round" stroke-linejoin="round"/>
<path d="M327.93 71.1602H366.429" stroke="#6A6AE2" stroke-width="0.75" stroke-miterlimit="10" stroke-linecap="round" stroke-linejoin="round"/>
<path d="M327.93 78.1113H385.077" stroke="#6A6AE2" stroke-width="0.75" stroke-miterlimit="10" stroke-linecap="round" stroke-linejoin="round"/>
<path d="M327.93 85.0625H385.077" stroke="#6A6AE2" stroke-width="0.75" stroke-miterlimit="10" stroke-linecap="round" stroke-linejoin="round"/>
<path d="M327.93 92.0137H385.077" stroke="#6A6AE2" stroke-width="0.75" stroke-miterlimit="10" stroke-linecap="round" stroke-linejoin="round"/>
<path d="M327.93 98.9668H385.077" stroke="#6A6AE2" stroke-width="0.75" stroke-miterlimit="10" stroke-linecap="round" stroke-linejoin="round"/>
<path d="M327.93 105.918H385.077" stroke="#6A6AE2" stroke-width="0.75" stroke-miterlimit="10" stroke-linecap="round" stroke-linejoin="round"/>
<path d="M327.93 126.539H366.429" stroke="#6A6AE2" stroke-width="0.75" stroke-miterlimit="10" stroke-linecap="round" stroke-linejoin="round"/>
<path d="M327.93 133.49H385.077" stroke="#6A6AE2" stroke-width="0.75" stroke-miterlimit="10" stroke-linecap="round" stroke-linejoin="round"/>
<path d="M327.93 140.441H385.077" stroke="#6A6AE2" stroke-width="0.75" stroke-miterlimit="10" stroke-linecap="round" stroke-linejoin="round"/>
<path d="M327.93 147.395H385.077" stroke="#6A6AE2" stroke-width="0.75" stroke-miterlimit="10" stroke-linecap="round" stroke-linejoin="round"/>
<path d="M327.93 154.346H385.077" stroke="#6A6AE2" stroke-width="0.75" stroke-miterlimit="10" stroke-linecap="round" stroke-linejoin="round"/>
<path d="M327.93 161.297H385.077" stroke="#6A6AE2" stroke-width="0.75" stroke-miterlimit="10" stroke-linecap="round" stroke-linejoin="round"/>
<path d="M378.171 225.271H334.835C331.021 225.271 327.93 222.179 327.93 218.365V183.79C327.93 179.976 331.021 176.885 334.835 176.885H378.171C381.985 176.885 385.077 179.976 385.077 183.79V218.365C385.077 222.179 381.985 225.271 378.171 225.271Z" fill="#6A6AE2"/>
<path d="M369.593 195.034C369.593 187.623 363.433 181.65 355.953 181.957C349.16 182.235 343.589 187.903 343.418 194.7C343.304 199.281 345.55 203.335 349.021 205.757C350.168 206.558 350.818 207.898 350.818 209.297V210.018C350.818 211.028 351.638 211.847 352.648 211.847H360.357C361.367 211.847 362.186 211.028 362.186 210.018V209.296C362.186 207.881 362.864 206.545 364.022 205.732C367.388 203.365 369.593 199.461 369.593 195.034Z" fill="white"/>
<path d="M354.117 200.879H355.097L355.586 201.762L356.643 200.389L357.22 201.598L357.808 200.847L358.886 200.814" stroke="#F4CC4D" stroke-width="0.75" stroke-miterlimit="10" stroke-linecap="round" stroke-linejoin="round"/>
<path d="M354.705 211.848L354.117 201.078" stroke="#6A6AE2" stroke-width="0.75" stroke-miterlimit="10" stroke-linecap="round" stroke-linejoin="round"/>
<path d="M358.297 211.848L358.885 201.078" stroke="#6A6AE2" stroke-width="0.75" stroke-miterlimit="10" stroke-linecap="round" stroke-linejoin="round"/>
<path d="M358.137 220.21H354.878C353.487 220.21 352.359 219.083 352.359 217.691V211.848H360.657V217.691C360.656 219.083 359.528 220.21 358.137 220.21Z" fill="#CACAFF"/>
<path d="M352.352 213.578H360.649" stroke="#6A6AE2" stroke-width="0.75" stroke-miterlimit="10" stroke-linecap="round" stroke-linejoin="round"/>
<path d="M352.352 215.211H360.649" stroke="#6A6AE2" stroke-width="0.75" stroke-miterlimit="10" stroke-linecap="round" stroke-linejoin="round"/>
<path d="M352.352 216.846H360.649" stroke="#6A6AE2" stroke-width="0.75" stroke-miterlimit="10" stroke-linecap="round" stroke-linejoin="round"/>
<path d="M352.352 218.479H360.649" stroke="#6A6AE2" stroke-width="0.75" stroke-miterlimit="10" stroke-linecap="round" stroke-linejoin="round"/>
<path d="M37.1301 269.065C44.951 298.991 75.5505 316.91 105.477 309.09C135.403 301.27 153.323 270.671 145.503 240.743C137.682 210.818 107.083 192.898 77.1567 200.718C47.2295 208.539 29.3101 239.138 37.1301 269.065Z" fill="#C9A645"/>
<path d="M35.4351 262.591C43.2561 292.518 73.8556 310.437 103.782 302.617C133.709 294.797 151.628 264.197 143.807 234.272C135.987 204.345 105.387 186.424 75.4607 194.246C45.5345 202.065 27.6141 232.665 35.4351 262.591Z" fill="#F4CC4D"/>
<path d="M43.5512 260.47C50.201 285.915 76.2182 301.153 101.664 294.503C127.109 287.853 142.346 261.836 135.696 236.39C129.047 210.944 103.029 195.708 77.583 202.358C52.1377 209.008 36.9014 235.026 43.5512 260.47Z" fill="#C9A645"/>
<path d="M73.4227 255.945C74.5868 253.655 76.2082 251.754 78.297 250.238C80.1009 248.93 82.3936 247.521 85.179 246.018C85.6151 245.779 86.0683 245.536 86.5287 245.291C88.7118 244.106 90.4792 243.101 91.8238 242.251C92.0063 242.132 92.1807 242.016 92.348 241.909C93.7494 241.001 94.8323 239.969 95.6009 238.824C96.3706 237.68 96.5744 236.415 96.2083 235.016C95.6881 233.023 94.3922 231.644 92.3358 230.891C91.3117 230.517 90.1111 230.35 88.725 230.393C87.3115 230.433 85.6972 230.695 83.8882 231.167C83.0882 231.376 82.2912 231.629 81.4962 231.926C80.1212 232.455 78.7432 233.109 77.3773 233.911C75.2226 235.168 73.2453 236.7 71.4322 238.518L66.7344 232.223C68.4622 230.285 70.6748 228.567 73.3538 227.066C75.3372 225.969 77.3875 225.059 79.5148 224.344L77.6328 217.144L84.7744 215.277L86.7193 222.719C89.0576 222.437 91.2184 222.461 93.1977 222.78C96.4872 223.308 99.153 224.481 101.196 226.307C103.231 228.134 104.605 230.392 105.311 233.091C106.148 236.291 105.988 239.057 104.83 241.372C103.67 243.677 102.057 245.577 99.9885 247.061C98.4158 248.193 96.4395 249.422 94.0475 250.759C93.2951 251.187 92.494 251.628 91.6575 252.07C89.9874 252.97 88.5688 253.776 87.3946 254.493C86.8156 254.831 86.2944 255.154 85.8381 255.451C84.4398 256.369 83.3579 257.408 82.5933 258.569C81.8308 259.738 81.6311 261.019 81.9941 262.411C82.493 264.319 83.7939 265.617 85.8797 266.31C87.1563 266.733 88.728 266.856 90.5755 266.668C91.7548 266.547 93.0538 266.305 94.4622 265.937C95.5705 265.647 96.6595 265.283 97.7293 264.851C99.4856 264.143 101.181 263.238 102.819 262.15C105.457 260.392 107.57 258.46 109.156 256.353L114.13 262.575C112.55 264.876 110.146 267.018 106.918 269.009C104.648 270.403 102.249 271.547 99.7137 272.441L101.615 279.715L94.4734 281.581L92.5589 274.256C89.8313 274.684 87.3186 274.708 85.0442 274.35C81.7294 273.827 79.0575 272.665 77.0184 270.857C74.9812 269.057 73.6205 266.813 72.9147 264.113C72.0883 260.958 72.2576 258.234 73.4227 255.945Z" fill="#F4CC4D"/>
<path d="M146.07 279.88L187.827 250.8C195.534 245.433 206.22 248.324 210.168 256.847L230.001 299.65H206.242L194.609 271.167L160.761 297.05L146.07 279.88Z" fill="#41BCBC"/>
<path d="M244.919 294.968C244.919 294.968 255.845 280.651 266.597 278.531L257.926 310.923H241.797L244.919 294.968Z" fill="#171659"/>
<path d="M150.924 229.166C149.925 224.712 147.708 220.737 144.618 217.605C141.811 214.748 138.275 212.593 134.289 211.428V234.277L137.521 234.317L146.345 278.53L147.406 283.868L161.589 276.844L150.924 229.166Z" fill="white"/>
<path d="M106.828 284.908L108.71 296.078C110.154 304.648 117.575 310.921 126.263 310.921H244.441L246.782 291.931H152.612L146.629 275.57L106.828 284.908Z" fill="#41BCBC"/>
<path d="M147.31 271.902L149.234 277.625L146.341 278.53L107.568 290.644C106.929 290.844 106.266 290.417 106.184 289.753L105.531 284.513C104.75 284.066 104.115 283.431 103.658 282.692C103.2 281.942 102.93 281.078 102.888 280.184C101.983 261.36 103.399 236.866 104.491 222.204C103.773 219.406 102.513 217.366 100.328 215.836C101.827 214.65 103.471 213.641 105.229 212.84C106.925 212.07 108.725 211.477 110.608 211.123L112.461 210.77L127.247 227.033L133.438 211.185L134.01 211.341C134.103 211.363 134.198 211.404 134.281 211.425C138.276 212.58 141.804 214.743 144.614 217.605C146.101 229.02 145.353 240.497 144.687 246.918C144.323 250.455 144.905 254.025 146.403 257.25L149.4 263.701C150.743 266.584 149.869 270.007 147.31 271.902Z" fill="white"/>
<path d="M133.439 211.185L129.796 220.519L127.247 227.033L122.044 221.31L112.461 210.769L113.772 210.52C114.885 210.302 115.811 209.594 116.331 208.637C117.091 208.803 118.194 209.032 119.515 209.24C122.564 209.729 126.789 210.104 130.618 209.459C130.701 209.855 130.93 210.198 131.242 210.448C131.409 210.572 131.606 210.677 131.825 210.739L133.439 211.185Z" fill="white"/>
<path d="M143.045 177.877C143.045 177.867 143.045 177.867 143.045 177.867C141.026 172.654 136.167 168.669 129.976 168.211C123.139 167.711 116.698 172.061 114.596 178.585C112.65 184.641 114.659 190.801 118.977 194.589L118.955 194.724L117.468 203.257L116.731 207.505C116.661 207.91 116.522 208.289 116.333 208.637C118.847 209.206 125.139 210.387 130.626 209.454C130.586 209.274 130.567 209.085 130.589 208.893L131.027 205.067C139.331 207.762 141.682 198.938 143.867 185.588H143.846C144.273 182.904 143.951 180.26 143.045 177.877Z" fill="#FFCFC0"/>
<path d="M143.045 177.867C143.045 177.867 143.045 177.867 143.045 177.877C141.37 182.612 127.363 175.754 127.363 175.754C125.866 184.62 121.339 191.862 118.956 194.724L118.977 194.589C114.658 190.802 112.651 184.642 114.596 178.585C116.698 172.061 123.139 167.711 129.976 168.211C136.167 168.668 141.026 172.654 143.045 177.867Z" fill="#171659"/>
<path d="M136.606 185.932C136.606 185.932 133.735 191.1 140.269 194.108L135.047 196.395" stroke="#FF8E77" stroke-width="0.75" stroke-miterlimit="10" stroke-linecap="round" stroke-linejoin="round"/>
<path d="M140.293 190.341C140.158 191.026 140.299 191.63 140.609 191.69C140.917 191.751 141.276 191.245 141.411 190.56C141.546 189.876 141.405 189.273 141.096 189.212C140.787 189.152 140.428 189.658 140.293 190.341Z" fill="#130F40"/>
<path d="M129.692 188.258C129.557 188.942 129.698 189.545 130.007 189.606C130.315 189.667 130.674 189.161 130.809 188.477C130.944 187.792 130.803 187.189 130.495 187.128C130.186 187.067 129.827 187.573 129.692 188.258Z" fill="#130F40"/>
<path d="M122.391 189.464C122.391 189.464 120.734 182.157 115.943 183.601C111.152 185.045 112.901 199.529 121.07 196.186L122.391 189.464Z" fill="#FFCFC0"/>
<path d="M119.982 191.796C119.982 191.796 119.791 187.714 117.555 186.613C115.319 185.511 115.195 188.502 115.195 188.502" stroke="#FF8E77" stroke-width="0.75" stroke-miterlimit="10" stroke-linecap="round" stroke-linejoin="round"/>
<path d="M118.434 187.551C118.434 187.551 115.583 189.075 117.899 193.308" stroke="#FF8E77" stroke-width="0.75" stroke-miterlimit="10" stroke-linecap="round" stroke-linejoin="round"/>
<path d="M130.25 181.828C130.25 181.828 132.649 181.178 134.469 182.674" stroke="#130F40" stroke-width="0.75" stroke-miterlimit="10" stroke-linecap="round" stroke-linejoin="round"/>
<path d="M140.852 184.17C140.852 184.17 143.053 183.259 144.027 185.275" stroke="#130F40" stroke-width="0.75" stroke-miterlimit="10" stroke-linecap="round" stroke-linejoin="round"/>
<path d="M129.852 196.396C129.852 196.396 130.177 199.648 133.949 200.429" stroke="#FF8E77" stroke-width="0.75" stroke-miterlimit="10" stroke-linecap="round" stroke-linejoin="round"/>
<path d="M131.024 205.068L130.556 209.199C120.577 206.223 121.524 197.045 121.524 197.045C121.524 197.045 124.447 203.424 131.024 205.068Z" fill="#FF8E77"/>
<path d="M121.266 260.283L133.585 254.571C135.587 253.642 137.941 253.962 139.629 255.384C142.8 258.055 145.906 259.667 147.104 262.75C148.926 267.432 138.002 267.046 138.002 267.046C138.002 267.046 131.095 271.729 124.013 269.734L121.266 260.283Z" fill="#FFCFC0"/>
<path d="M137.57 263.751C137.57 263.751 144.079 263.221 146.158 265.611" stroke="#FF8E77" stroke-width="0.75" stroke-miterlimit="10" stroke-linecap="round" stroke-linejoin="round"/>
<path d="M137.133 260.371C137.133 260.371 143.199 259.496 147.102 262.751" stroke="#FF8E77" stroke-width="0.75" stroke-miterlimit="10" stroke-linecap="round" stroke-linejoin="round"/>
<path d="M136.703 256.469C136.703 256.469 141.06 256.722 144.995 259.717" stroke="#FF8E77" stroke-width="0.75" stroke-miterlimit="10" stroke-linecap="round" stroke-linejoin="round"/>
<path d="M100.327 215.842C96.4283 218.926 93.511 223.21 92.1299 228.188C89.1224 239.051 85.907 254.774 86.5113 270.882C86.8135 278.655 94.6588 283.858 101.984 281.266L126.26 272.682L121.504 256.689L104.096 263.181L105.397 233.921C105.397 224.369 104.849 218.987 100.327 215.842Z" fill="white"/>
<path d="M127.506 217.763L129.796 220.52L127.246 227.034L122.044 221.311L123.865 217.763L119.516 209.24C122.565 209.729 126.789 210.104 130.618 209.459C130.701 209.855 130.93 210.198 131.243 210.448L127.506 217.763Z" fill="#171659"/>
<path d="M133.443 211.185L130.998 217.438L124.359 209.759C126.399 209.852 128.574 209.801 130.624 209.457C130.759 210.06 131.207 210.56 131.831 210.737L133.443 211.185Z" fill="white"/>
<path d="M124.354 209.76L118.819 217.762L112.461 210.769L113.772 210.52C114.885 210.302 115.811 209.594 116.331 208.637C117.903 208.99 120.951 209.583 124.354 209.76Z" fill="white"/>
<path d="M118.82 217.761L124.356 209.76L130.994 217.439" stroke="#130F40" stroke-width="0.75" stroke-miterlimit="10" stroke-linecap="round" stroke-linejoin="round"/>
<path d="M104.096 263.182C98.3734 265.138 94.2109 268.65 94.2109 268.65" stroke="#130F40" stroke-width="0.75" stroke-miterlimit="10" stroke-linecap="round" stroke-linejoin="round"/>
<path d="M146.339 278.53L149.232 277.625L147.308 271.902C149.867 270.007 150.741 266.584 149.4 263.702L146.403 257.251C144.905 254.026 144.414 250.465 144.687 246.919C145.326 238.605 144.631 230.28 142.117 224.947" stroke="#130F40" stroke-width="0.75" stroke-miterlimit="10" stroke-linecap="round" stroke-linejoin="round"/>
<path d="M105.395 233.922L104.094 263.182L121.502 256.689L122.486 259.715" stroke="#130F40" stroke-width="0.75" stroke-miterlimit="10" stroke-linecap="round" stroke-linejoin="round"/>
<path d="M125.528 270.229L126.258 272.682L102.977 280.915" stroke="#130F40" stroke-width="0.75" stroke-miterlimit="10" stroke-linecap="round" stroke-linejoin="round"/>
<path d="M106.828 283.868L142.858 272.682" stroke="#130F40" stroke-width="0.75" stroke-miterlimit="10" stroke-linecap="round" stroke-linejoin="round"/>
<path d="M130.62 292.009H179.411C180.104 292.009 180.711 291.545 180.891 290.875L190.31 255.978C190.572 255.003 189.838 254.045 188.829 254.045H140.038C139.346 254.045 138.739 254.509 138.558 255.179L129.14 290.076C128.876 291.051 129.61 292.009 130.62 292.009Z" fill="#6A6AE2"/>
<path d="M140.472 255.854L131.055 290.751" stroke="#130F40" stroke-width="0.75" stroke-miterlimit="10" stroke-linecap="round" stroke-linejoin="round"/>
<path d="M137.516 271.166L141.862 287.919C142.486 290.328 144.659 292.009 147.147 292.009H188.425C189.642 292.009 190.533 290.859 190.227 289.68L185.434 271.166H137.516Z" fill="#CACAFF"/>
<path d="M203.094 291.934L226.464 292.01" stroke="#130F40" stroke-width="0.75" stroke-miterlimit="10" stroke-linecap="round" stroke-linejoin="round"/>
<path d="M112.461 210.77L127.247 227.033L134.01 211.341" stroke="#130F40" stroke-width="0.75" stroke-miterlimit="10" stroke-linecap="round" stroke-linejoin="round"/>
<path d="M112.19 115.725V147.824C112.19 153.669 107.453 158.406 101.608 158.406H92.025V175.738L74.7048 158.406H52.5743C46.7296 158.406 41.9922 153.668 41.9922 147.824V115.725C41.9922 109.88 46.7306 105.143 52.5743 105.143H101.608C107.452 105.143 112.19 109.88 112.19 115.725Z" fill="#41BCBC"/>
<path d="M63.7513 140.44C63.7513 142.378 62.1806 143.949 60.2428 143.949C58.3051 143.949 56.7344 142.378 56.7344 140.44C56.7344 138.502 58.3051 136.932 60.2428 136.932C62.1806 136.931 63.7513 138.502 63.7513 140.44Z" fill="white"/>
<path d="M80.595 140.44C80.595 142.378 79.0243 143.949 77.0866 143.949C75.1488 143.949 73.5781 142.378 73.5781 140.44C73.5781 138.502 75.1488 136.932 77.0866 136.932C79.0243 136.931 80.595 138.502 80.595 140.44Z" fill="white"/>
<path d="M97.4388 140.44C97.4388 142.378 95.8681 143.949 93.9303 143.949C91.9926 143.949 90.4219 142.378 90.4219 140.44C90.4219 138.502 91.9926 136.932 93.9303 136.932C95.8681 136.932 97.4388 138.502 97.4388 140.44Z" fill="white"/>
<path d="M363.959 261.342H292.695V310.845H363.959V261.342Z" fill="#F4CC4D"/>
<path d="M363.966 261.342V310.845H338.991C317.444 299.793 316.926 273.976 318.113 261.342H363.966Z" fill="#C9A645"/>
<path d="M292.547 299.246H364.108" stroke="#130F40" stroke-width="0.75" stroke-miterlimit="10" stroke-linecap="round" stroke-linejoin="round"/>
<path d="M292.547 286.094H364.108" stroke="#130F40" stroke-width="0.75" stroke-miterlimit="10" stroke-linecap="round" stroke-linejoin="round"/>
<path d="M292.547 272.939H364.108" stroke="#130F40" stroke-width="0.75" stroke-miterlimit="10" stroke-linecap="round" stroke-linejoin="round"/>
<path d="M396.444 256.483C406.839 273.18 401.73 295.142 385.033 305.536C368.336 315.931 346.374 310.822 335.978 294.126C325.584 277.429 330.692 255.467 347.39 245.072C364.088 234.678 386.05 239.787 396.444 256.483Z" fill="#C9A645"/>
<path d="M394.193 252.871C404.587 269.569 399.479 291.531 382.782 301.926C366.086 312.321 344.123 307.212 333.729 290.515C323.333 273.819 328.443 251.855 345.139 241.461C361.836 231.066 383.798 236.175 394.193 252.871Z" fill="#F4CC4D"/>
<path d="M389.669 255.689C398.507 269.886 394.164 288.56 379.967 297.398C365.77 306.236 347.096 301.893 338.258 287.695C329.42 273.498 333.764 254.826 347.961 245.986C362.157 237.148 380.831 241.492 389.669 255.689Z" fill="#C9A645"/>
<path d="M374.512 267.501C372.946 267.037 371.359 266.954 369.746 267.256C368.354 267.516 366.7 267.958 364.788 268.587C364.487 268.684 364.177 268.787 363.863 268.892C362.361 269.382 361.125 269.758 360.144 270.008C360.009 270.04 359.88 270.069 359.757 270.1C358.725 270.349 357.776 270.398 356.911 270.253C356.046 270.108 355.373 269.649 354.887 268.868C354.195 267.757 354.124 266.555 354.676 265.276C354.952 264.64 355.399 264.013 356.025 263.391C356.662 262.755 357.489 262.126 358.498 261.497C358.944 261.219 359.409 260.962 359.894 260.724C360.739 260.321 361.643 259.97 362.611 259.69C364.134 259.245 365.706 259.003 367.338 258.961L366.487 254.04C364.836 253.99 363.076 254.26 361.211 254.84C359.837 255.276 358.521 255.825 357.259 256.494L354.759 252.477L350.774 254.957L353.359 259.109C352.206 260.065 351.272 261.073 350.553 262.127C349.358 263.877 348.735 265.62 348.683 267.361C348.636 269.099 349.078 270.721 350.015 272.227C351.127 274.013 352.473 275.149 354.048 275.626C355.62 276.1 357.202 276.185 358.793 275.879C360.003 275.647 361.434 275.273 363.098 274.753C363.624 274.593 364.179 274.415 364.749 274.223C365.895 273.845 366.886 273.543 367.731 273.314C368.141 273.195 368.518 273.095 368.855 273.015C369.89 272.771 370.842 272.726 371.713 272.88C372.586 273.039 373.264 273.508 373.748 274.284C374.411 275.348 374.442 276.516 373.848 277.783C373.485 278.558 372.855 279.337 371.96 280.107C371.389 280.599 370.709 281.093 369.923 281.581C369.305 281.966 368.661 282.309 367.994 282.615C366.898 283.116 365.74 283.502 364.522 283.783C362.557 284.232 360.74 284.363 359.074 284.174L359.772 289.191C361.525 289.468 363.565 289.295 365.896 288.676C367.532 288.237 369.109 287.631 370.63 286.851L373.157 290.91L377.141 288.43L374.597 284.344C375.987 283.272 377.097 282.122 377.927 280.916C379.134 279.158 379.767 277.416 379.824 275.683C379.884 273.956 379.443 272.346 378.506 270.84C377.409 269.078 376.077 267.964 374.512 267.501Z" fill="#F4CC4D"/>
<path d="M363.961 310.845H363.87C352.828 310.115 342.282 304.244 335.975 294.124C335.6 293.516 335.245 292.908 334.91 292.279C334.494 291.711 334.099 291.123 333.724 290.515C328.076 281.439 327.011 270.823 329.891 261.342" stroke="#130F40" stroke-width="0.75" stroke-miterlimit="10" stroke-linecap="round" stroke-linejoin="round"/>
<path d="M445.829 302.384C442.524 302.08 442.088 300.528 437.677 300.528C432.8 300.528 432.424 303.134 429.697 303.134C428.713 303.134 428.064 302.8 427.648 302.364L428.429 293.938H440.912C442.757 296.239 444.46 299.413 445.829 302.384Z" fill="#FFCFC0"/>
<path d="M449.273 310.921H426.844L427.645 302.363C428.061 302.799 428.71 303.133 429.693 303.133C432.421 303.133 432.796 300.527 437.673 300.527C442.084 300.527 442.52 302.079 445.826 302.383C447.925 306.875 449.273 310.921 449.273 310.921Z" fill="#171659"/>
<path d="M393.257 305.727C398.573 304.009 407.918 301.078 412.736 301.952L412.587 293.939H400.419C396.05 296.658 391.056 301.027 387.211 304.654C387.666 305.709 389.045 307.088 393.257 305.727Z" fill="#FFCFC0"/>
<path d="M393.256 305.727C389.044 307.089 387.664 305.709 387.21 304.655C383.526 308.13 380.898 310.924 380.898 310.924H412.903L412.736 301.952C407.916 301.078 398.571 304.009 393.256 305.727Z" fill="#171659"/>
<path d="M449.863 110.646C449.7 114.925 441.416 121.161 441.416 121.161C441.416 121.161 419.696 118.961 414.291 117.359C408.887 115.747 406.94 110.17 410.317 107.128C413.703 104.086 415.478 98.1638 409.901 98.1537C404.324 98.1537 405.338 93.2054 405.338 93.2054C403.644 93.0431 400.856 91.3295 400.775 87.6081C400.684 83.8766 405.247 82.2339 405.247 82.2339C404.151 81.4227 402.205 72.824 416.999 67.5005C418.631 66.9124 420.102 66.5068 421.43 66.233C432.138 64.0934 433.486 71.3841 433.486 71.3841C448.453 73.0775 440.402 93.2054 440.402 93.2054C440.402 93.2054 443.616 93.104 443.616 96.2068C443.616 99.3097 439.814 100.902 439.814 100.902C439.814 100.902 442.136 100.557 443.545 101.591C444.022 101.936 444.387 102.433 444.539 103.163C445.107 105.87 442.055 108.121 441.7 108.375C445.249 106.621 450.035 106.377 449.863 110.646Z" fill="#130F40"/>
<path d="M455.431 144.747L454.367 148.55L444.632 152.707L442.057 153.812L439.004 141.948L437.433 135.824H407.022L398.778 144.595L394.519 149.128L393.018 147.586L383.102 137.467C385.931 133.431 388.79 129.862 391.721 126.779C394.803 123.524 397.967 120.807 401.272 118.647C407.488 114.57 414.201 112.451 421.786 112.451C426.237 112.451 430.293 113.009 433.852 113.82C439.166 115.037 443.81 117.947 447.227 121.942C449.63 124.741 451.425 128.077 452.429 131.748C452.52 132.072 452.601 132.407 452.682 132.741L455.431 144.747Z" fill="#6A6AE2"/>
<path d="M454.367 148.549L449.186 167.095C448.821 166.527 448.527 165.878 448.314 165.158L444.633 152.706L454.367 148.549Z" fill="#FFCFC0"/>
<path d="M409.224 166.994L403.262 177.013L381.532 158.477C377.101 154.705 376.087 148.235 379.2 143.328C380.498 141.279 381.795 139.322 383.103 137.467L393.02 147.587L390.343 150.263L409.224 166.994Z" fill="#FFCFC0"/>
<path d="M436.772 147.374C434.987 151.724 434.642 156.56 435.91 161.083C437.056 165.149 437.938 169.357 438.627 173.869H401.444C403.34 163.131 403.614 157.159 399.974 149.381C399.274 147.891 398.909 146.268 398.777 144.595C398.189 137.173 402.245 128.969 402.245 128.969L401.272 118.647C404.739 116.365 408.369 114.702 412.213 113.678C411.979 115.656 412.071 120.614 419.087 120.614C425.831 120.614 430.718 115.787 432.624 113.557C433.04 113.638 433.446 113.729 433.851 113.82C439.165 115.037 443.809 117.947 447.226 121.942L439.002 141.949L436.772 147.374Z" fill="#6A6AE2"/>
<path d="M438.63 173.869H401.449C401.368 174.327 401.289 174.781 401.202 175.257C399.082 186.898 393.891 294.889 393.891 294.889H415.935L419.484 198.306L423.804 294.889H444.327C444.327 294.889 441.549 207.817 440.535 192.475C440.081 185.607 439.498 179.505 438.63 173.869Z" fill="#171659"/>
<path d="M429.807 97.4332L429.575 111.639C429.562 112.43 430.137 113.1 430.917 113.234C431.496 113.334 432.066 113.441 432.626 113.556C430.719 115.787 425.832 120.613 419.089 120.613C412.072 120.613 411.981 115.655 412.214 113.678C412.971 113.475 413.737 113.299 414.516 113.147C415.218 113.01 415.734 112.408 415.791 111.694L415.874 110.646L416.32 105.19C407.874 106.204 407.276 97.3318 407.701 84.1498L407.722 84.16C408.038 75.7113 415.499 69.0838 424.248 70.1475C430.875 70.9526 436.225 76.3248 437.003 82.9553C437.725 89.1134 434.651 94.6245 429.807 97.4332Z" fill="#FFCFC0"/>
<path d="M443.546 101.591H433.437C428.549 95.8925 428.995 85.499 428.995 85.499C417.274 80.6216 421.512 69.0215 421.512 69.0215L421.431 66.233C432.139 64.0934 433.487 71.3841 433.487 71.3841C448.454 73.0775 440.403 93.2054 440.403 93.2054C440.403 93.2054 443.617 93.104 443.617 96.2068C443.617 99.3097 439.815 100.902 439.815 100.902C439.815 100.902 442.136 100.557 443.546 101.591Z" fill="#130F40"/>
<path d="M422.917 96.207C422.917 96.207 422.288 96.9777 421.386 97.8396C419.368 99.7459 415.981 102.098 415.281 97.1906L415.626 97.15L422.917 96.207Z" fill="#FF8E77"/>
<path d="M422.916 96.207C422.916 96.207 422.287 96.9777 421.385 97.8396C417.004 99.462 415.899 98.0728 415.625 97.15L422.916 96.207Z" fill="white"/>
<path d="M415.008 88.224C415.008 90.2885 413.086 91.9636 410.715 91.9636C408.343 91.9636 406.422 90.2895 406.422 88.224C406.422 86.1585 408.344 84.4844 410.715 84.4844C413.086 84.4844 415.008 86.1585 415.008 88.224Z" stroke="white" stroke-width="0.75" stroke-miterlimit="10" stroke-linecap="round" stroke-linejoin="round"/>
<path d="M422.129 91.9636C424.5 91.9636 426.422 90.2893 426.422 88.224C426.422 86.1587 424.5 84.4844 422.129 84.4844C419.758 84.4844 417.836 86.1587 417.836 88.224C417.836 90.2893 419.758 91.9636 422.129 91.9636Z" stroke="white" stroke-width="0.75" stroke-miterlimit="10" stroke-linecap="round" stroke-linejoin="round"/>
<path d="M415.749 85.1191C415.749 85.1191 417.524 90.6008 410.711 92.2486L415.274 95.4173" stroke="#FF8E77" stroke-width="0.75" stroke-miterlimit="10" stroke-linecap="round" stroke-linejoin="round"/>
<path d="M415.008 88.2251C415.008 88.2251 415.956 86.8309 417.835 88.2251" stroke="white" stroke-width="0.75" stroke-miterlimit="10" stroke-linecap="round" stroke-linejoin="round"/>
<path d="M412.359 88.188C412.359 88.8674 412.111 89.419 411.805 89.419C411.498 89.419 411.25 88.8684 411.25 88.188C411.25 87.5076 411.498 86.957 411.805 86.957C412.111 86.958 412.359 87.5087 412.359 88.188Z" fill="#130F40"/>
<path d="M422.336 89.419C422.642 89.419 422.891 88.8679 422.891 88.188C422.891 87.5082 422.642 86.957 422.336 86.957C422.03 86.957 421.781 87.5082 421.781 88.188C421.781 88.8679 422.03 89.419 422.336 89.419Z" fill="#130F40"/>
<path d="M408.133 81.2165C408.133 81.2165 410.413 79.3193 413.336 80.5229" stroke="#130F40" stroke-width="0.75" stroke-miterlimit="10" stroke-linecap="round" stroke-linejoin="round"/>
<path d="M417.523 80.429C417.523 80.429 420.534 78.6859 424.146 80.429" stroke="#130F40" stroke-width="0.75" stroke-miterlimit="10" stroke-linecap="round" stroke-linejoin="round"/>
<path d="M426.422 88.2246L434.24 89.8085" stroke="white" stroke-width="0.75" stroke-miterlimit="10" stroke-linecap="round" stroke-linejoin="round"/>
<path d="M427.719 100.902C427.435 101.369 423.226 108.213 415.875 110.647L416.321 105.192C424.017 104.776 427.506 101.125 427.719 100.902Z" fill="#FF8E77"/>
<path d="M429.164 94.2868C429.164 94.2868 432.122 87.6117 436.431 89.8932C440.741 92.1747 436.347 105.694 429.164 100.963V94.2868Z" fill="#FFCFC0"/>
<path d="M431.023 96.97C431.023 96.97 431.975 93.1037 434.319 92.4699C436.663 91.8362 436.22 94.72 436.22 94.72" stroke="#FF8E77" stroke-width="0.75" stroke-miterlimit="10" stroke-linecap="round" stroke-linejoin="round"/>
<path d="M433.304 93.2012C433.304 93.2012 435.744 95.1947 432.734 98.8076" stroke="#FF8E77" stroke-width="0.75" stroke-miterlimit="10" stroke-linecap="round" stroke-linejoin="round"/>
<path d="M398.777 144.594C398.189 137.172 402.245 128.969 402.245 128.969" stroke="#130F40" stroke-width="0.75" stroke-miterlimit="10" stroke-linecap="round" stroke-linejoin="round"/>
<path d="M437.438 135.824L439.008 141.949" stroke="#130F40" stroke-width="0.75" stroke-miterlimit="10" stroke-linecap="round" stroke-linejoin="round"/>
<path d="M468.859 126.567C468.666 128.97 468.666 133.097 467.531 136.2C467.003 140.732 466.344 145.214 465.614 149.534C465.614 149.564 465.604 149.605 465.594 149.645C464.702 154.928 463.688 159.988 462.664 164.642C462.511 165.342 462.278 165.981 461.974 166.559C459.429 171.528 452.128 171.822 449.188 167.096L455.434 144.748L458.283 134.567L456.336 125.36C455.981 123.677 456.204 121.933 456.955 120.391C458.902 116.396 462.836 108.964 464.742 109.897C467.338 111.164 462.146 114.541 461.254 120.615C461.254 120.615 468.038 108.73 470.38 110.647C472.722 112.563 467.734 114.551 464.945 121.142C465.27 120.716 470.867 113.233 472.408 114.774C474 116.366 468.869 119.276 467.034 123.515C467.277 123.221 471.516 118.11 473.108 119.094C474.75 120.108 469.052 124.164 468.859 126.567Z" fill="#FFCFC0"/>
<path d="M454.364 148.549L451.938 157.239" stroke="#FF8E77" stroke-width="0.75" stroke-miterlimit="10" stroke-linecap="round" stroke-linejoin="round"/>
<path d="M458.531 123.27C458.531 123.27 464.852 116.853 466.634 119.016C468.417 121.179 463.728 122.637 463.475 124.031C463.475 124.031 464.362 127.063 463.855 128.969" fill="#FFCFC0"/>
<path d="M458.531 123.27C458.531 123.27 464.852 116.853 466.634 119.016C468.417 121.179 463.728 122.637 463.475 124.031C463.475 124.031 464.362 127.063 463.855 128.969" stroke="#FF8E77" stroke-width="0.75" stroke-miterlimit="10" stroke-linecap="round" stroke-linejoin="round"/>
<path d="M434.552 63.4649C434.552 63.4649 434.75 48.7711 449.264 48.7883C449.264 48.7883 434.57 48.5896 434.587 34.0762C434.587 34.0762 434.388 48.77 419.875 48.7528C419.875 48.7528 434.57 48.9526 434.552 63.4649Z" fill="#F4CC4D"/>
<path d="M450.764 74.1414C450.764 74.1414 450.864 66.7909 458.124 66.7991C458.124 66.7991 450.773 66.6997 450.781 59.4395C450.781 59.4395 450.682 66.7899 443.422 66.7818C443.422 66.7818 450.773 66.8812 450.764 74.1414Z" fill="#F4CC4D"/>
<path d="M33.6016 310.924H470.159" stroke="#130F40" stroke-width="0.75" stroke-miterlimit="10" stroke-linecap="round" stroke-linejoin="round"/>
<path d="M326.327 267.041H228.172C228.172 259.061 234.641 252.592 242.621 252.592H242.794C242.723 251.882 242.692 251.162 242.692 250.432C242.692 238.183 252.619 228.256 264.869 228.256C274.451 228.256 282.624 234.33 285.716 242.847C287.207 242.442 288.769 242.229 290.391 242.229C299.639 242.229 307.254 249.185 308.308 258.159C310.194 256.699 312.557 255.837 315.122 255.837C321.308 255.837 326.327 260.856 326.327 267.041Z" fill="#6A6AE2"/>
<path d="M188.946 65.4898H72.7734C72.7734 56.0444 80.4302 48.3877 89.8756 48.3877H90.0794C89.9952 47.5481 89.9597 46.6953 89.9597 45.8314C89.9597 31.3332 101.709 19.584 116.207 19.584C127.549 19.584 137.221 26.7732 140.882 36.8544C142.646 36.3738 144.495 36.1223 146.414 36.1223C157.359 36.1223 166.373 44.355 167.621 54.9766C169.854 53.2488 172.649 52.2287 175.686 52.2287C183.006 52.2287 188.946 58.1697 188.946 65.4898Z" fill="#6A6AE2"/>
</svg>
