<svg width="416" height="273" viewBox="0 0 416 273" fill="none" xmlns="http://www.w3.org/2000/svg">
<path d="M414.077 41.6621H10.2031V251.843H414.077V41.6621Z" fill="#C9F1F8"/>
<path d="M116.287 223.64H4.30583C2.47995 223.64 1 222.16 1 220.335V107.286C1 105.46 2.47995 103.98 4.30583 103.98H116.287C118.113 103.98 119.593 105.46 119.593 107.286V220.335C119.593 222.16 118.113 223.64 116.287 223.64Z" fill="white" stroke="#1E2234" stroke-miterlimit="10" stroke-linecap="round" stroke-linejoin="round"/>
<path d="M115.852 104.043V223.581C117.961 223.284 119.591 221.489 119.591 219.297V108.326C119.591 106.134 117.961 104.34 115.852 104.043Z" fill="white" stroke="#1E2234" stroke-miterlimit="10" stroke-linecap="round" stroke-linejoin="round"/>
<path d="M119.593 113.062V108.325C119.593 105.926 117.648 103.98 115.248 103.98H5.34496C2.94567 103.98 1 105.925 1 108.325V113.062H119.593Z" fill="#1E2234" stroke="#1E2234" stroke-miterlimit="10" stroke-linecap="round" stroke-linejoin="round"/>
<path d="M38.6708 119.832H5.875V145.351H38.6708V119.832Z" fill="white" stroke="#1E2234" stroke-miterlimit="10" stroke-linecap="round" stroke-linejoin="round"/>
<path d="M75.5146 119.832H42.7188V145.351H75.5146V119.832Z" fill="white" stroke="#1E2234" stroke-miterlimit="10" stroke-linecap="round" stroke-linejoin="round"/>
<path d="M112.358 119.832H79.5625V145.351H112.358V119.832Z" fill="white" stroke="#1E2234" stroke-miterlimit="10" stroke-linecap="round" stroke-linejoin="round"/>
<path d="M111.204 152.771H43.0391V212.63H111.204V152.771Z" fill="#6FC2D0" stroke="#1E2234" stroke-miterlimit="10" stroke-linecap="round" stroke-linejoin="round"/>
<path d="M111.204 170.003V212.631H43.0391L68.983 176.903L85.6844 190.826L105.003 163.82L111.204 170.003Z" fill="#1E2234" stroke="#1E2234" stroke-miterlimit="10" stroke-linecap="round" stroke-linejoin="round"/>
<path d="M60.257 169.57C62.6127 167.214 62.6127 163.395 60.257 161.039C57.9013 158.684 54.082 158.684 51.7263 161.039C49.3706 163.395 49.3706 167.214 51.7263 169.57C54.082 171.926 57.9013 171.926 60.257 169.57Z" fill="#FF8246" stroke="#1E2234" stroke-miterlimit="10" stroke-linecap="round" stroke-linejoin="round"/>
<path d="M7.26562 153.705H37.4253" stroke="#1E2234" stroke-miterlimit="10" stroke-linecap="round" stroke-linejoin="round"/>
<path d="M7.26562 162.984H37.4253" stroke="#1E2234" stroke-miterlimit="10" stroke-linecap="round" stroke-linejoin="round"/>
<path d="M7.26562 172.264H37.4253" stroke="#1E2234" stroke-miterlimit="10" stroke-linecap="round" stroke-linejoin="round"/>
<path d="M7.26562 181.545H37.4253" stroke="#1E2234" stroke-miterlimit="10" stroke-linecap="round" stroke-linejoin="round"/>
<path d="M7.26562 190.824H37.4253" stroke="#1E2234" stroke-miterlimit="10" stroke-linecap="round" stroke-linejoin="round"/>
<path d="M7.26562 200.104H37.4253" stroke="#1E2234" stroke-miterlimit="10" stroke-linecap="round" stroke-linejoin="round"/>
<path d="M7.26562 209.383H37.4253" stroke="#1E2234" stroke-miterlimit="10" stroke-linecap="round" stroke-linejoin="round"/>
<path d="M96.012 110.161C97.0412 110.161 97.8756 109.326 97.8756 108.297C97.8756 107.268 97.0412 106.434 96.012 106.434C94.9828 106.434 94.1484 107.268 94.1484 108.297C94.1484 109.326 94.9828 110.161 96.012 110.161Z" fill="white"/>
<path d="M103.676 110.161C104.705 110.161 105.54 109.326 105.54 108.297C105.54 107.268 104.705 106.434 103.676 106.434C102.647 106.434 101.812 107.268 101.812 108.297C101.812 109.326 102.647 110.161 103.676 110.161Z" fill="white"/>
<path d="M111.34 110.161C112.369 110.161 113.204 109.326 113.204 108.297C113.204 107.268 112.369 106.434 111.34 106.434C110.311 106.434 109.477 107.268 109.477 108.297C109.477 109.326 110.311 110.161 111.34 110.161Z" fill="white"/>
<path d="M151.011 101.234L139.227 108.794L143.229 157.378H177.249L181.029 108.238L167.91 100.789L151.011 101.234Z" fill="#FF8246" stroke="#1E2234" stroke-miterlimit="10" stroke-linecap="round" stroke-linejoin="round"/>
<path d="M155.733 107.417L158.781 113.061L155.281 144.556L160.361 151.33L164.651 143.202L161.377 112.948L164.425 107.191L160.361 103.24L155.733 107.417Z" fill="#6FC2D0" stroke="#1E2234" stroke-miterlimit="10" stroke-linecap="round" stroke-linejoin="round"/>
<path d="M152.688 90.3711L152.801 98.2729L160.364 107.304L165.218 99.5146L165.895 90.5965C165.895 90.5965 164.201 92.9669 160.138 92.8545C156.074 92.7421 152.688 90.3711 152.688 90.3711Z" fill="white" stroke="#1E2234" stroke-miterlimit="10" stroke-linecap="round" stroke-linejoin="round"/>
<path d="M147.266 67.4538C147.266 67.4538 149.185 84.3867 150.653 87.9988C152.12 91.6115 155.732 97.82 159.345 97.82C162.957 97.82 165.779 93.0787 166.682 88.5634C167.586 84.0482 167.699 73.5492 167.359 67.3407C167.021 61.1322 156.183 61.1322 154.378 62.0354C152.571 62.9385 151.556 63.7287 151.556 63.7287C151.556 63.7287 147.041 63.6156 147.266 67.4538Z" fill="white" stroke="#1E2234" stroke-miterlimit="10" stroke-linecap="round" stroke-linejoin="round"/>
<path d="M154.378 62.0353C152.571 62.9385 151.556 63.7286 151.556 63.7286C151.556 63.7286 147.041 63.6156 147.266 67.4538C147.266 67.4538 148.003 73.9537 148.912 79.7584C149.113 79.716 149.41 79.4932 149.41 78.5167C149.41 77.0495 149.185 76.4849 149.185 76.1464C149.185 75.8078 150.201 76.2594 150.652 74.7916C151.103 73.3238 150.878 68.47 150.878 68.47C150.878 68.47 157.538 72.9852 161.263 73.4368C164.988 73.8884 165.553 73.6629 165.553 73.6629C165.553 73.6629 165.553 75.5824 166.118 76.2594C166.682 76.9371 166.682 76.9372 166.682 76.9372C166.682 76.9372 166.682 78.969 167.247 79.7591C167.306 79.8419 167.374 79.9004 167.446 79.9462C167.597 75.5979 167.549 70.8033 167.36 67.3414C167.021 61.1322 156.183 61.1322 154.378 62.0353Z" fill="#1E2234" stroke="#1E2234" stroke-miterlimit="10" stroke-linecap="round" stroke-linejoin="round"/>
<path d="M161.716 75.6934L159.797 78.6284L160.587 85.8531L157.539 85.4015" stroke="#1E2234" stroke-miterlimit="10" stroke-linecap="round" stroke-linejoin="round"/>
<path d="M155.963 76.1466C155.963 76.1466 153.141 74.3403 152.125 77.3883" stroke="#1E2234" stroke-miterlimit="10" stroke-linecap="round" stroke-linejoin="round"/>
<path d="M162.852 75.9202C162.852 75.9202 164.771 74.2269 165.674 77.5005" stroke="#1E2234" stroke-miterlimit="10" stroke-linecap="round" stroke-linejoin="round"/>
<path d="M163.073 86.8711C163.073 86.8711 160.815 88.5644 158.783 88.5644C156.752 88.5644 154.945 86.9842 154.945 86.9842" stroke="#1E2234" stroke-miterlimit="10" stroke-linecap="round" stroke-linejoin="round"/>
<path d="M156.977 88.1133C156.977 88.1133 157.767 90.2582 159.008 90.3712C160.25 90.4843 160.927 88.1133 160.927 88.1133C160.927 88.1133 158.219 89.0165 156.977 88.1133Z" fill="#1E2234" stroke="#1E2234" stroke-miterlimit="10" stroke-linecap="round" stroke-linejoin="round"/>
<path d="M148.917 79.7583C148.917 79.7583 148.174 75.807 146.593 78.2904C145.013 80.7738 147.045 83.2573 147.835 83.935C148.625 84.612 149.867 85.4028 149.867 85.4028L148.917 79.7583Z" fill="white" stroke="#1E2234" stroke-miterlimit="10" stroke-linecap="round" stroke-linejoin="round"/>
<path d="M167.223 79.6795C167.223 79.6795 167.375 75.6623 169.304 77.8853C171.234 80.1082 169.591 82.8642 168.91 83.651C168.228 84.4377 167.117 85.4021 167.117 85.4021L167.223 79.6795Z" fill="white" stroke="#1E2234" stroke-miterlimit="10" stroke-linecap="round" stroke-linejoin="round"/>
<path d="M155.733 79.9034C155.807 80.5225 155.565 81.0603 155.194 81.104C154.822 81.1484 154.461 80.682 154.388 80.0629C154.315 79.4437 154.556 78.906 154.927 78.8622C155.299 78.8185 155.66 79.2842 155.733 79.9034Z" fill="#1E2234"/>
<path d="M163.972 79.7395C163.99 80.3627 163.702 80.8769 163.329 80.8877C162.955 80.8984 162.637 80.4024 162.618 79.7792C162.6 79.156 162.888 78.6418 163.261 78.6311C163.636 78.6196 163.953 79.1163 163.972 79.7395Z" fill="#1E2234"/>
<path d="M152.458 96.3535L159.119 103.353L155.393 109.674L149.523 100.756L152.458 96.3535Z" fill="#FF8246" stroke="#1E2234" stroke-miterlimit="10" stroke-linecap="round" stroke-linejoin="round"/>
<path d="M161.266 102.9L164.314 110.463L169.507 101.207L165.555 97.1426L161.266 102.9Z" fill="#FF8246" stroke="#1E2234" stroke-miterlimit="10" stroke-linecap="round" stroke-linejoin="round"/>
<path d="M107.95 131.621L105.345 129.564C105.345 129.564 104.248 126.959 103.699 125.998C103.151 125.039 99.7226 124.078 98.3517 123.256C96.9807 122.433 96.2949 119.69 95.3352 120.651C94.3755 121.61 95.4725 123.942 96.021 125.039C96.5695 126.136 98.0777 127.507 98.0777 127.507L91.0845 128.466C91.0845 128.466 86.4219 125.724 86.4219 126.821C86.4219 127.918 92.1808 133.677 94.2382 134.5C96.2949 135.323 105.208 136.008 105.208 136.008L107.265 137.105L107.95 131.621Z" fill="white" stroke="#1E2234" stroke-miterlimit="10" stroke-linecap="round" stroke-linejoin="round"/>
<path d="M90.9453 129.564L96.1564 131.484C96.1564 131.484 99.996 130.113 101.367 130.387C102.738 130.661 103.972 131.484 103.972 131.484" stroke="#1E2234" stroke-miterlimit="10" stroke-linecap="round" stroke-linejoin="round"/>
<path d="M139.225 108.793L130.989 133.813L107.951 131.619L107.266 137.105L133.868 148.897L141.684 141.081L139.225 108.793Z" fill="#FF8246" stroke="#1E2234" stroke-miterlimit="10" stroke-linecap="round" stroke-linejoin="round"/>
<path d="M110.83 132.031L110.281 138.202" stroke="#1E2234" stroke-miterlimit="10" stroke-linecap="round" stroke-linejoin="round"/>
<path d="M136.06 120.1L141.682 141.08L135.375 126.956" stroke="#1E2234" stroke-width="0.5" stroke-miterlimit="10" stroke-linecap="round" stroke-linejoin="round"/>
<path d="M212.164 131.621L214.769 129.564C214.769 129.564 215.866 126.959 216.415 125.998C216.963 125.039 220.392 124.078 221.763 123.256C223.133 122.433 223.819 119.69 224.779 120.651C225.739 121.61 224.642 123.942 224.093 125.039C223.545 126.136 222.036 127.507 222.036 127.507L229.03 128.466C229.03 128.466 233.692 125.724 233.692 126.821C233.692 127.918 227.933 133.677 225.875 134.5C223.819 135.323 214.905 136.008 214.905 136.008L212.849 137.105L212.164 131.621Z" fill="white" stroke="#1E2234" stroke-miterlimit="10" stroke-linecap="round" stroke-linejoin="round"/>
<path d="M229.167 129.564L223.956 131.484C223.956 131.484 220.117 130.113 218.746 130.387C217.375 130.661 216.141 131.484 216.141 131.484" stroke="#1E2234" stroke-miterlimit="10" stroke-linecap="round" stroke-linejoin="round"/>
<path d="M180.889 108.793L189.125 133.813L212.162 131.619L212.848 137.105L186.246 148.897L178.43 141.081L180.889 108.793Z" fill="#FF8246" stroke="#1E2234" stroke-miterlimit="10" stroke-linecap="round" stroke-linejoin="round"/>
<path d="M209.281 132.031L209.83 138.202" stroke="#1E2234" stroke-miterlimit="10" stroke-linecap="round" stroke-linejoin="round"/>
<path d="M184.052 120.1L178.43 141.08L184.737 126.956" stroke="#1E2234" stroke-width="0.5" stroke-miterlimit="10" stroke-linecap="round" stroke-linejoin="round"/>
<path d="M182.165 270.248C180.62 269.641 174.583 262.968 174.583 262.968L177.156 157.378L160.26 157.256L143.366 157.378L145.939 262.968C145.939 262.968 139.901 269.641 138.357 270.248C136.812 270.855 135.408 271.31 135.549 271.765C135.689 272.22 135.689 272.22 135.689 272.22H155.066C155.066 272.22 155.066 271.006 155.066 268.428C155.066 265.85 154.785 264.181 154.785 263.726C154.785 263.271 160.413 185.314 160.413 185.314C160.413 185.314 165.737 263.271 165.737 263.726C165.737 264.181 165.457 265.85 165.457 268.428C165.457 271.006 165.457 272.22 165.457 272.22H184.833C184.833 272.22 184.833 272.22 184.974 271.765C185.113 271.309 183.709 270.854 182.165 270.248Z" fill="#1E2234" stroke="#1E2234" stroke-miterlimit="10" stroke-linecap="round" stroke-linejoin="round"/>
<path d="M279.06 107.349C279.06 107.349 277.586 111.28 277.586 113.409C277.586 115.539 277.586 118.978 277.094 120.616C276.603 122.254 273.491 121.599 273.655 123.237C273.818 124.875 276.767 127.004 276.767 127.004C276.767 127.004 277.586 133.719 279.224 133.884C280.862 134.047 284.629 132.737 284.629 132.737L285.12 138.797L295.931 136.177C295.931 136.177 296.258 130.28 298.224 128.642C300.189 127.004 305.594 120.944 301.336 111.608C297.077 102.271 281.844 100.142 279.06 107.349Z" fill="white" stroke="#1E2234" stroke-miterlimit="10" stroke-linecap="round" stroke-linejoin="round"/>
<path d="M278.832 119.903C278.762 120.669 278.56 121.276 278.38 121.259C278.2 121.243 278.11 120.609 278.18 119.843C278.25 119.078 278.453 118.47 278.632 118.487C278.813 118.503 278.902 119.137 278.832 119.903Z" fill="#1E2234"/>
<path d="M278.023 117.037C278.023 117.037 279.234 115.826 279.688 117.415" stroke="#1E2234" stroke-miterlimit="10" stroke-linecap="round" stroke-linejoin="round"/>
<path d="M277.188 128.087C277.188 128.087 278.398 128.541 279.155 127.709" stroke="#1E2234" stroke-miterlimit="10" stroke-linecap="round" stroke-linejoin="round"/>
<path d="M287.573 120.617C287.573 120.617 288.392 123.729 287.573 126.022C286.754 128.315 286.418 130.07 287.736 129.789C289.672 129.377 289.538 124.22 289.538 122.419C289.538 120.617 289.047 119.307 287.573 120.617Z" fill="white" stroke="#1E2234" stroke-miterlimit="10" stroke-linecap="round" stroke-linejoin="round"/>
<path d="M281.226 102.711C281.226 102.711 277.913 98.8213 276.184 102.279C274.455 105.736 275.752 110.347 277.48 111.644C279.209 112.94 280.506 112.796 280.506 112.796C280.506 112.796 280.074 115.389 282.379 118.847C284.684 122.304 286.701 123.313 286.701 123.313C286.701 123.313 289.294 128.499 295.633 128.499C301.972 128.499 307.302 124.321 308.743 116.974C310.183 109.626 307.014 100.838 300.675 98.2452C294.336 95.6521 284.684 94.788 281.226 102.711Z" fill="#1E2234" stroke="#1E2234" stroke-miterlimit="10" stroke-linecap="round" stroke-linejoin="round"/>
<path d="M304.56 100.117C304.56 100.117 299.086 100.982 297.357 105.016C295.628 109.05 296.493 116.253 301.102 119.71C305.713 123.167 316.662 122.159 318.678 113.948C320.695 105.736 312.339 100.55 310.179 100.55C308.018 100.55 306.433 101.126 306.433 101.126C306.433 101.126 311.187 99.9728 310.035 99.1086C308.882 98.2445 304.56 100.117 304.56 100.117Z" fill="#1E2234" stroke="#1E2234" stroke-miterlimit="10" stroke-linecap="round" stroke-linejoin="round"/>
<path d="M413.42 271.877H9.55469" stroke="#1E2234" stroke-miterlimit="10" stroke-linecap="round" stroke-linejoin="round"/>
<path d="M265.08 272.219C264.104 272.219 263.309 271.434 263.297 270.458L262.328 186.381H267.831L266.863 270.458C266.851 271.434 266.057 272.219 265.08 272.219Z" fill="#6FC2D0" stroke="#1E2234" stroke-miterlimit="10" stroke-linecap="round" stroke-linejoin="round"/>
<path d="M267.757 192.88L267.831 186.381H262.328L262.403 192.88H267.757Z" fill="#1E2234" stroke="#1E2234" stroke-miterlimit="10" stroke-linecap="round" stroke-linejoin="round"/>
<path d="M241.222 229.567L232.855 257.523C232.855 257.523 226.1 260.594 223.643 261.208C221.187 261.822 215.353 261.208 215.967 263.204C216.581 265.2 225.639 267.964 227.635 268.578C229.63 269.192 233.929 271.341 234.851 270.881C235.772 270.42 238.996 259.826 239.61 258.291C240.224 256.756 262.025 211.005 262.333 210.084C262.639 209.163 247.824 206.846 247.824 206.846L241.222 229.567Z" fill="white" stroke="#1E2234" stroke-miterlimit="10" stroke-linecap="round" stroke-linejoin="round"/>
<path d="M215.967 263.205C216.581 265.201 225.639 267.965 227.635 268.578C229.631 269.193 233.929 271.342 234.851 270.882C235.317 270.649 236.374 267.817 237.383 264.88C235.337 264.361 232.695 264.243 229.784 264.126C225.946 263.973 223.183 263.205 223.183 263.205L223.643 261.209C221.187 261.823 215.353 261.209 215.967 263.205Z" fill="#FF8246" stroke="#1E2234" stroke-miterlimit="10" stroke-linecap="round" stroke-linejoin="round"/>
<path d="M288.581 253.336H291.016V229.875H288.581V253.336Z" fill="#263238" stroke="#1E2234" stroke-miterlimit="10" stroke-linecap="round" stroke-linejoin="round"/>
<path d="M286.711 254.294V250.34H292.892V254.331L317.618 264.254V268.937H315.932V265.378L289.712 259.411L264.188 265.378V268.937H262.547V264.254L286.711 254.294Z" fill="#263238" stroke="#1E2234" stroke-miterlimit="10" stroke-linecap="round" stroke-linejoin="round"/>
<path d="M283.707 233.441H295.883V225.95H283.707V233.441Z" fill="#263238" stroke="#1E2234" stroke-miterlimit="10" stroke-linecap="round" stroke-linejoin="round"/>
<path d="M317.617 269.125C317.617 267.676 318.792 266.502 320.239 266.502C321.688 266.502 322.862 267.676 322.862 269.125C322.862 270.573 321.688 271.747 320.239 271.747C318.791 271.747 317.617 270.573 317.617 269.125Z" fill="#263238" stroke="#1E2234" stroke-miterlimit="10" stroke-linecap="round" stroke-linejoin="round"/>
<path d="M319.117 269.126C319.117 268.505 319.621 268.002 320.241 268.002C320.862 268.002 321.365 268.505 321.365 269.126C321.365 269.746 320.862 270.25 320.241 270.25C319.621 270.25 319.117 269.746 319.117 269.126Z" fill="white" stroke="#1E2234" stroke-miterlimit="10" stroke-linecap="round" stroke-linejoin="round"/>
<path d="M257.109 269.125C257.109 267.676 258.284 266.502 259.732 266.502C261.18 266.502 262.355 267.676 262.355 269.125C262.355 270.573 261.18 271.747 259.732 271.747C258.284 271.747 257.109 270.573 257.109 269.125Z" fill="#263238" stroke="#1E2234" stroke-miterlimit="10" stroke-linecap="round" stroke-linejoin="round"/>
<path d="M258.609 269.126C258.609 268.505 259.113 268.002 259.733 268.002C260.354 268.002 260.857 268.505 260.857 269.126C260.857 269.746 260.354 270.25 259.733 270.25C259.113 270.25 258.609 269.746 258.609 269.126Z" fill="white" stroke="#1E2234" stroke-miterlimit="10" stroke-linecap="round" stroke-linejoin="round"/>
<path d="M288.671 269.072H290.732L291.762 255.023H287.641L288.671 269.072Z" fill="#263238" stroke="#1E2234" stroke-miterlimit="10" stroke-linecap="round" stroke-linejoin="round"/>
<path d="M288.767 271.883H290.828V266.076H288.767V271.883Z" fill="#263238" stroke="#1E2234" stroke-miterlimit="10" stroke-linecap="round" stroke-linejoin="round"/>
<path d="M113.869 272.217C112.893 272.217 112.098 271.432 112.086 270.456L111.117 186.379H116.62L115.652 270.456C115.64 271.432 114.846 272.217 113.869 272.217Z" fill="#6FC2D0" stroke="#1E2234" stroke-miterlimit="10" stroke-linecap="round" stroke-linejoin="round"/>
<path d="M116.546 192.878L116.62 186.379H111.117L111.192 192.878H116.546Z" fill="#1E2234" stroke="#1E2234" stroke-miterlimit="10" stroke-linecap="round" stroke-linejoin="round"/>
<path d="M169.423 272.217C168.447 272.217 167.652 271.432 167.64 270.456L166.672 186.379H172.175L171.207 270.456C171.194 271.432 170.399 272.217 169.423 272.217Z" fill="#6FC2D0" stroke="#1E2234" stroke-miterlimit="10" stroke-linecap="round" stroke-linejoin="round"/>
<path d="M172.1 192.878L172.175 186.379H166.672L166.747 192.878H172.1Z" fill="#1E2234" stroke="#1E2234" stroke-miterlimit="10" stroke-linecap="round" stroke-linejoin="round"/>
<path d="M209.783 272.217C208.807 272.217 208.012 271.432 208 270.456L207.031 186.379H212.534L211.566 270.456C211.554 271.432 210.759 272.217 209.783 272.217Z" fill="#6FC2D0" stroke="#1E2234" stroke-miterlimit="10" stroke-linecap="round" stroke-linejoin="round"/>
<path d="M212.46 192.878L212.534 186.379H207.031L207.106 192.878H212.46Z" fill="#1E2234" stroke="#1E2234" stroke-miterlimit="10" stroke-linecap="round" stroke-linejoin="round"/>
<path d="M273.688 182.592H108.391V187.674H273.688V182.592Z" fill="#6FC2D0" stroke="#1E2234" stroke-miterlimit="10" stroke-linecap="round" stroke-linejoin="round"/>
<path d="M276.313 179.621H105.758V182.798H276.313V179.621Z" fill="#6FC2D0" stroke="#1E2234" stroke-miterlimit="10" stroke-linecap="round" stroke-linejoin="round"/>
<path d="M275.134 182.592H200.875V187.674H275.134V182.592Z" fill="#1E2234" stroke="#1E2234" stroke-miterlimit="10" stroke-linecap="round" stroke-linejoin="round"/>
<path d="M276.316 179.621H199.695V182.798H276.316V179.621Z" fill="#1E2234" stroke="#1E2234" stroke-miterlimit="10" stroke-linecap="round" stroke-linejoin="round"/>
<path d="M232.199 154.143H198.852L206.076 179.542H239.422L232.199 154.143Z" fill="#FF8246" stroke="#1E2234" stroke-miterlimit="10" stroke-linecap="round" stroke-linejoin="round"/>
<path d="M230.698 155.598H201.172L207.568 178.088H237.094L230.698 155.598Z" fill="white" stroke="#1E2234" stroke-miterlimit="10" stroke-linecap="round" stroke-linejoin="round"/>
<path d="M247.567 177.984H206.117V179.542H247.567V177.984Z" fill="#FF8246" stroke="#1E2234" stroke-miterlimit="10" stroke-linecap="round" stroke-linejoin="round"/>
<path d="M276.562 170.817L264.313 164.692C264.313 164.692 262.91 162.013 262.144 160.865C261.379 159.717 259.21 159.334 259.21 159.334C259.21 159.334 256.914 157.675 256.02 158.186C255.127 158.696 251.555 163.544 250.789 164.31C250.023 165.076 250.534 165.331 251.044 166.479C251.554 167.627 252.703 167.627 252.575 166.479C252.447 165.331 252.192 164.693 252.192 164.693C252.192 164.693 255.126 162.014 255.509 162.014C255.892 162.014 256.785 163.29 256.657 163.8C256.529 164.31 254.488 166.862 255.509 167.755C256.53 168.648 263.037 169.286 263.037 169.286C263.037 169.286 275.285 179.238 276.306 179.621C277.327 180.004 278.73 178.855 278.73 178.855L276.562 170.817Z" fill="white" stroke="#1E2234" stroke-miterlimit="10" stroke-linecap="round" stroke-linejoin="round"/>
<path d="M257.555 164.055C257.555 164.055 254.493 164.693 253.345 164.693C252.197 164.693 248.241 163.672 247.858 164.693C247.475 165.714 248.751 166.862 249.9 167.245C251.048 167.628 253.6 166.99 253.6 166.99C253.6 166.99 256.279 168.393 258.703 168.649C261.127 168.904 262.148 168.011 262.148 168.011" fill="white"/>
<path d="M257.555 164.055C257.555 164.055 254.493 164.693 253.345 164.693C252.197 164.693 248.241 163.672 247.858 164.693C247.475 165.714 248.751 166.862 249.9 167.245C251.048 167.628 253.6 166.99 253.6 166.99C253.6 166.99 256.279 168.393 258.703 168.649C261.127 168.904 262.148 168.011 262.148 168.011" stroke="#1E2234" stroke-miterlimit="10" stroke-linecap="round" stroke-linejoin="round"/>
<path d="M306.087 215.771C305.551 218.338 303.52 218.207 303.52 218.207H251.393L259.109 234.183L271.43 258.013C271.43 258.013 274.679 260.987 275.353 261.936C276.035 262.887 276.441 264.243 275.084 264.917C273.728 265.591 266.761 270.268 265.2 270.741C261.253 271.935 255.997 272.089 254.503 272.227C253.016 272.365 253.553 271.415 255.997 270.059C258.434 268.71 264.981 260.751 264.981 260.751C264.981 260.751 244.35 232.69 240.152 227.28C235.953 221.863 226.888 209.948 231.761 207.235C233.865 206.06 241.298 204.465 249.064 203.029C259.282 201.137 270.073 199.519 270.073 199.519L278.065 185.167L302.569 183.949C302.57 183.949 306.631 213.196 306.087 215.771Z" fill="white" stroke="#1E2234" stroke-miterlimit="10" stroke-linecap="round" stroke-linejoin="round"/>
<path d="M251.389 218.206L240.828 216.176" stroke="#1E2234" stroke-miterlimit="10" stroke-linecap="round" stroke-linejoin="round"/>
<path d="M306.084 215.771C305.548 218.337 303.516 218.207 303.516 218.207H251.592C248.329 216.017 247.328 213.058 247.328 208.729C247.328 206.183 248.177 204.298 249.061 203.029C259.279 201.137 270.07 199.519 270.07 199.519L278.061 185.167L302.565 183.949C302.567 183.949 306.628 213.196 306.084 215.771Z" fill="#1E2234" stroke="#1E2234" stroke-miterlimit="10" stroke-linecap="round" stroke-linejoin="round"/>
<path d="M275.086 264.918C276.442 264.243 276.036 262.887 275.355 261.937C275.085 261.557 274.402 260.853 273.681 260.145C270.193 262.852 262.653 268.362 262.653 268.362L258.494 267.972C257.513 268.937 256.621 269.715 255.999 270.059C253.555 271.415 253.018 272.366 254.505 272.228C255.999 272.09 261.254 271.936 265.202 270.741C266.762 270.269 273.73 265.592 275.086 264.918Z" fill="#FF8246" stroke="#1E2234" stroke-miterlimit="10" stroke-linecap="round" stroke-linejoin="round"/>
<path d="M282.392 145.635C282.392 145.635 275.352 163.236 275.352 166.079C275.352 168.923 277.789 178.807 277.789 178.807C277.789 178.807 275.757 185.305 277.247 185.982C278.736 186.659 301.211 185.44 302.43 184.763C303.649 184.086 304.461 180.702 304.19 178.941C303.92 177.181 302.22 158.901 299.857 150.779C297.495 142.657 296.878 141.572 296.878 141.572L282.392 145.635Z" fill="#FF8246" stroke="#1E2234" stroke-miterlimit="10" stroke-linecap="round" stroke-linejoin="round"/>
<path d="M296.07 134.037L279.929 140.06C279.474 140.229 279.205 140.7 279.289 141.178L280.425 147.69C280.534 148.311 281.178 148.681 281.769 148.463L297.497 142.656C297.93 142.495 298.2 142.061 298.151 141.602L297.426 134.874C297.356 134.219 296.687 133.807 296.07 134.037Z" fill="#FFCBB2" stroke="#1E2234" stroke-miterlimit="10" stroke-linecap="round" stroke-linejoin="round"/>
<path d="M280.499 139.811C280.499 139.811 278.874 145.634 278.197 150.913C277.52 156.194 274.406 173.253 274.406 173.253L278.739 173.795C278.739 173.795 283.748 140.353 285.374 137.51C285.374 137.51 282.801 137.916 280.499 139.811Z" fill="#FFCBB2" stroke="#1E2234" stroke-miterlimit="10" stroke-linecap="round" stroke-linejoin="round"/>
<path d="M226.339 170.408C226.339 170.408 225.797 174.47 226.88 173.929C227.963 173.387 228.776 170.95 228.776 170.95L230.13 170.408C230.13 170.408 229.047 172.168 229.724 172.71C230.401 173.252 230.943 172.575 231.484 171.221C232.026 169.867 232.026 169.189 232.026 169.189C232.026 169.189 227.827 169.461 226.339 170.408Z" fill="white" stroke="#1E2234" stroke-miterlimit="10" stroke-linecap="round" stroke-linejoin="round"/>
<path d="M292.41 150.776C292.41 150.776 287.265 149.963 284.828 151.453C282.391 152.942 262.894 171.898 262.894 171.898L241.366 168.648C241.366 168.648 237.846 165.534 235.815 164.315C233.784 163.097 231.754 164.18 231.754 164.18L230.535 165.128C230.535 165.128 229.453 164.18 228.775 164.992C228.098 165.805 226.339 168.106 226.339 168.106C226.339 168.106 224.307 168.513 222.412 168.513C220.517 168.513 221.058 169.461 222.277 170.138C223.496 170.815 228.776 170.95 228.776 170.95C228.776 170.95 232.702 172.575 234.327 172.71C235.952 172.845 239.336 173.252 239.336 173.252C239.336 173.252 264.52 181.917 265.738 181.917C266.956 181.917 267.227 181.917 268.04 181.375C268.852 180.833 290.109 164.315 290.109 164.315" fill="#FF8246"/>
<path d="M292.41 150.776C292.41 150.776 287.265 149.963 284.828 151.453C282.391 152.942 262.894 171.898 262.894 171.898L241.366 168.648C241.366 168.648 237.846 165.534 235.815 164.315C233.784 163.097 231.754 164.18 231.754 164.18L230.535 165.128C230.535 165.128 229.453 164.18 228.775 164.992C228.098 165.805 226.339 168.106 226.339 168.106C226.339 168.106 224.307 168.513 222.412 168.513C220.517 168.513 221.058 169.461 222.277 170.138C223.496 170.815 228.776 170.95 228.776 170.95C228.776 170.95 232.702 172.575 234.327 172.71C235.952 172.845 239.336 173.252 239.336 173.252C239.336 173.252 264.52 181.917 265.738 181.917C266.956 181.917 267.227 181.917 268.04 181.375C268.852 180.833 290.109 164.315 290.109 164.315" stroke="#1E2234" stroke-miterlimit="10" stroke-linecap="round" stroke-linejoin="round"/>
<path d="M256.302 170.903L241.367 168.648C241.367 168.648 237.846 165.534 235.816 164.315C233.785 163.097 231.754 164.18 231.754 164.18L230.535 165.128C230.535 165.128 229.453 164.18 228.775 164.993C228.098 165.805 226.339 168.107 226.339 168.107C226.339 168.107 224.307 168.513 222.412 168.513C220.517 168.513 221.058 169.461 222.277 170.138C223.496 170.815 228.776 170.95 228.776 170.95C228.776 170.95 232.703 172.575 234.327 172.71C235.952 172.845 239.336 173.252 239.336 173.252C239.336 173.252 246.854 175.838 253.873 178.185C254.196 174.711 255.262 172.383 256.302 170.903Z" fill="white" stroke="#1E2234" stroke-miterlimit="10" stroke-linecap="round" stroke-linejoin="round"/>
<path d="M226.344 168.107H229.728" stroke="#1E2234" stroke-miterlimit="10" stroke-linecap="round" stroke-linejoin="round"/>
<path d="M314.37 227.816H262.02C260.905 227.816 260 226.912 260 225.797V220.049C260 218.934 260.905 218.029 262.02 218.029H314.37C315.485 218.029 316.39 218.934 316.39 220.049V225.797C316.39 226.912 315.485 227.816 314.37 227.816Z" fill="#6FC2D0" stroke="#1E2234" stroke-miterlimit="10" stroke-linecap="round" stroke-linejoin="round"/>
<path d="M314.366 227.816H282.942C281.826 227.816 280.922 226.912 280.922 225.797V220.049C280.922 218.934 281.826 218.029 282.942 218.029H314.366C315.481 218.029 316.386 218.934 316.386 220.049V225.797C316.386 226.912 315.481 227.816 314.366 227.816Z" fill="#1E2234" stroke="#1E2234" stroke-miterlimit="10" stroke-linecap="round" stroke-linejoin="round"/>
<path d="M278.906 218.029C278.906 218.029 281.28 185.873 289.047 170.805H323.067C323.067 170.805 311.259 192.087 310.017 218.029H278.906Z" fill="#6FC2D0" stroke="#1E2234" stroke-miterlimit="10" stroke-linecap="round" stroke-linejoin="round"/>
<path d="M283.102 218.029C283.102 218.029 285.475 185.873 293.242 170.805H327.262C327.262 170.805 315.454 192.087 314.212 218.029H283.102Z" fill="#1E2234" stroke="#1E2234" stroke-miterlimit="10" stroke-linecap="round" stroke-linejoin="round"/>
<path d="M268.965 75.8236C282.924 61.8647 282.924 39.2329 268.965 25.274C255.006 11.3152 232.374 11.3152 218.415 25.274C204.457 39.2329 204.457 61.8647 218.415 75.8236C232.374 89.7825 255.006 89.7825 268.965 75.8236Z" fill="#6FC2D0" stroke="#1E2234" stroke-miterlimit="10" stroke-linecap="round" stroke-linejoin="round"/>
<path d="M263.931 70.7887C275.109 59.6105 275.109 41.4871 263.931 30.3089C252.752 19.1307 234.629 19.1307 223.451 30.3089C212.273 41.4871 212.273 59.6105 223.451 70.7887C234.629 81.9669 252.752 81.9669 263.931 70.7887Z" fill="white" stroke="#1E2234" stroke-miterlimit="10" stroke-linecap="round" stroke-linejoin="round"/>
<path d="M256.649 63.5072C263.805 56.3505 263.805 44.7472 256.649 37.5905C249.492 30.4337 237.889 30.4337 230.732 37.5905C223.575 44.7472 223.575 56.3505 230.732 63.5072C237.889 70.6639 249.492 70.6639 256.649 63.5072Z" fill="#6FC2D0" stroke="#1E2234" stroke-miterlimit="10" stroke-linecap="round" stroke-linejoin="round"/>
<path d="M251.017 57.8722C255.062 53.8276 255.062 47.27 251.017 43.2254C246.972 39.1808 240.415 39.1808 236.37 43.2254C232.326 47.27 232.326 53.8276 236.37 57.8722C240.415 61.9168 246.972 61.9168 251.017 57.8722Z" fill="white" stroke="#1E2234" stroke-miterlimit="10" stroke-linecap="round" stroke-linejoin="round"/>
<path d="M248.067 50.547C248.067 48.1316 246.109 46.1738 243.694 46.1738C241.278 46.1738 239.32 48.1316 239.32 50.547C239.32 52.9625 241.278 54.9203 243.694 54.9203C246.109 54.9203 248.067 52.9625 248.067 50.547Z" fill="#FF8246" stroke="#1E2234" stroke-miterlimit="10" stroke-linecap="round" stroke-linejoin="round"/>
<path d="M242.821 51.4127H194.75V49.6797H242.821C243.3 49.6797 243.688 50.0673 243.688 50.5458C243.688 51.0244 243.3 51.4127 242.821 51.4127Z" fill="#1E2234"/>
<path d="M190.47 44.3828L190.737 44.6924L195.763 49.6734H180.73L175.352 44.3828H190.47Z" fill="#1E2234"/>
<path d="M175.352 56.5093L180.73 51.3984H195.763C193.806 52.8656 192.029 54.5986 190.426 56.5093H175.352Z" fill="#1E2234"/>
<path d="M344.235 31.1087L330.359 7.07617L316.484 31.1087H322.017V49.1057H338.702V31.1087H344.235Z" fill="#6FC2D0" stroke="#1E2234" stroke-miterlimit="10" stroke-linecap="round" stroke-linejoin="round"/>
<path d="M335.684 83.3316C347.984 80.383 355.565 68.0213 352.617 55.7209C349.668 43.4206 337.306 35.8395 325.006 38.7881C312.706 41.7366 305.125 54.0984 308.073 66.3987C311.022 78.6991 323.384 86.2802 335.684 83.3316Z" fill="white" stroke="#1E2234" stroke-miterlimit="10" stroke-linecap="round" stroke-linejoin="round"/>
<path d="M330.367 81.0466C341.413 81.0466 350.367 72.0924 350.367 61.0467C350.367 50.0011 341.413 41.0469 330.367 41.0469C319.321 41.0469 310.367 50.0011 310.367 61.0467C310.367 72.0924 319.321 81.0466 330.367 81.0466Z" fill="white" stroke="#1E2234" stroke-miterlimit="10" stroke-linecap="round" stroke-linejoin="round"/>
<path d="M329.99 77.2479V74.1151C327.817 74.0087 326.187 73.3081 325.1 72.0106C324.013 70.713 323.428 68.7142 323.344 66.0134L328.186 65.2852C328.207 66.3822 328.302 67.2685 328.471 67.9436C328.64 68.6193 328.887 69.1038 329.214 69.3993C329.542 69.6947 329.937 69.8421 330.401 69.8421C330.991 69.8421 331.376 69.6423 331.556 69.2411C331.735 68.8407 331.825 68.418 331.825 67.9752C331.825 66.9206 331.577 66.0289 331.081 65.3013C330.585 64.5731 329.905 63.8402 329.04 63.1019L326.793 61.1717C326.16 60.6017 325.585 60.0168 325.068 59.4152C324.551 58.8135 324.135 58.1176 323.818 57.3261C323.502 56.5347 323.344 55.5911 323.344 54.4941C323.344 52.4899 323.919 50.9177 325.068 49.779C326.218 48.6396 327.763 47.9962 329.704 47.8481V44.8418H331.318V47.8165C332.542 47.8798 333.522 48.1597 334.261 48.6551C335 49.1511 335.554 49.7629 335.923 50.4904C336.292 51.2186 336.545 51.9885 336.683 52.8008C336.819 53.6131 336.899 54.3676 336.92 55.0635L332.015 55.6652C331.994 54.9053 331.946 54.2411 331.872 53.671C331.798 53.1017 331.651 52.6642 331.429 52.358C331.208 52.0524 330.854 51.9098 330.369 51.9306C329.842 51.9306 329.451 52.152 329.198 52.5956C328.945 53.0384 328.819 53.4819 328.819 53.9248C328.819 54.9376 329.077 55.7553 329.594 56.3772C330.111 56.9997 330.675 57.5853 331.287 58.1338L333.44 60.0007C334.156 60.6549 334.817 61.3508 335.418 62.0897C336.019 62.828 336.498 63.6511 336.857 64.5583C337.216 65.4655 337.395 66.5101 337.395 67.6912C337.395 68.8097 337.163 69.8327 336.699 70.7608C336.235 71.6895 335.57 72.444 334.705 73.0235C333.839 73.6043 332.806 73.9569 331.604 74.0841V77.2486H329.99V77.2479Z" fill="#1E2234" stroke="#1E2234" stroke-miterlimit="10" stroke-linecap="round" stroke-linejoin="round"/>
<path d="M368.04 60.7148H359.141V81.3265H368.04V60.7148Z" fill="#6FC2D0" stroke="#1E2234" stroke-miterlimit="10" stroke-linecap="round" stroke-linejoin="round"/>
<path d="M379.946 50.1797H371.047V81.3266H379.946V50.1797Z" fill="#1E2234" stroke="#1E2234" stroke-miterlimit="10" stroke-linecap="round" stroke-linejoin="round"/>
<path d="M391.86 36.8965H382.961V81.3266H391.86V36.8965Z" fill="#6FC2D0" stroke="#1E2234" stroke-miterlimit="10" stroke-linecap="round" stroke-linejoin="round"/>
<path d="M403.766 27.7363H394.867V81.3268H403.766V27.7363Z" fill="#FF8246" stroke="#1E2234" stroke-miterlimit="10" stroke-linecap="round" stroke-linejoin="round"/>
<path d="M132.203 37.4961H95.576C93.0226 37.4961 90.9531 39.5656 90.9531 42.119V63.4548C90.9531 66.0075 93.0226 68.0777 95.576 68.0777H122.715L134.454 76.8194L131.923 68.0777H132.203C134.755 68.0777 136.826 66.0082 136.826 63.4548V42.119C136.826 39.5663 134.755 37.4961 132.203 37.4961Z" fill="#1E2234" stroke="#1E2234" stroke-miterlimit="10" stroke-linecap="round" stroke-linejoin="round"/>
<path d="M108.134 53.1627C108.134 52.1828 107.34 51.3887 106.36 51.3887C105.38 51.3887 104.586 52.1828 104.586 53.1627C104.586 54.1426 105.38 54.9368 106.36 54.9368C107.339 54.9368 108.134 54.1426 108.134 53.1627Z" fill="white"/>
<path d="M116.118 53.1627C116.118 52.1828 115.324 51.3887 114.344 51.3887C113.364 51.3887 112.57 52.1828 112.57 53.1627C112.57 54.1426 113.364 54.9368 114.344 54.9368C115.324 54.9368 116.118 54.1426 116.118 53.1627Z" fill="white"/>
<path d="M124.103 53.1627C124.103 52.1828 123.309 51.3887 122.329 51.3887C121.349 51.3887 120.555 52.1828 120.555 53.1627C120.555 54.1426 121.349 54.9368 122.329 54.9368C123.308 54.9368 124.103 54.1426 124.103 53.1627Z" fill="white"/>
<path d="M348.5 172.922C348.5 172.922 346.615 178.106 342.61 178.812C338.605 179.519 331.536 171.745 336.013 167.739C340.489 163.734 346.615 170.095 348.5 172.922Z" fill="#6FC2D0" stroke="#1E2234" stroke-miterlimit="10" stroke-linecap="round" stroke-linejoin="round"/>
<path d="M354.622 147.477C354.622 147.477 348.731 161.849 351.088 168.917C353.444 175.985 368.052 181.168 372.292 171.98C376.533 162.791 367.109 149.832 363.575 147.005C360.041 144.178 355.799 145.12 354.622 147.477Z" fill="#6FC2D0" stroke="#1E2234" stroke-miterlimit="10" stroke-linecap="round" stroke-linejoin="round"/>
<path d="M389.021 153.603C389.021 153.603 378.89 162.791 377.711 171.98C376.534 181.168 383.366 184.467 390.434 183.289C397.502 182.111 401.036 164.204 398.916 155.959C396.796 147.712 389.021 153.603 389.021 153.603Z" fill="#6FC2D0" stroke="#1E2234" stroke-miterlimit="10" stroke-linecap="round" stroke-linejoin="round"/>
<path d="M390.911 204.494C390.911 204.494 379.601 204.965 379.13 210.384C378.659 215.803 384.078 216.981 389.497 212.269C394.916 207.557 395.623 204.73 390.911 204.494Z" fill="#6FC2D0" stroke="#1E2234" stroke-miterlimit="10" stroke-linecap="round" stroke-linejoin="round"/>
<path d="M379.312 211.674C379.312 211.674 388.225 207.597 392.239 206.889" stroke="#1E2234" stroke-miterlimit="10" stroke-linecap="round" stroke-linejoin="round"/>
<path d="M362.87 215.802C362.87 215.802 361.692 221.457 357.451 223.578C353.21 225.698 345.67 221.222 349.676 214.389C353.681 207.556 360.749 212.975 362.87 215.802Z" fill="#6FC2D0" stroke="#1E2234" stroke-miterlimit="10" stroke-linecap="round" stroke-linejoin="round"/>
<path d="M352.974 198.132C352.974 198.132 350.853 193.419 342.607 196.482C334.36 199.545 331.062 204.257 336.246 205.906C341.429 207.556 352.974 198.132 352.974 198.132Z" fill="#6FC2D0" stroke="#1E2234" stroke-miterlimit="10" stroke-linecap="round" stroke-linejoin="round"/>
<path d="M351.395 197.918C351.395 197.918 342.659 198.862 337.938 202.876" stroke="#1E2234" stroke-miterlimit="10" stroke-linecap="round" stroke-linejoin="round"/>
<path d="M376.539 141.586C376.539 141.586 377.952 144.885 380.78 144.178C383.607 143.471 384.314 139.23 388.791 140.409C393.267 141.586 397.037 146.77 397.037 144.414C397.037 142.057 391.382 135.932 385.021 135.932C378.66 135.932 376.775 138.523 376.539 141.586Z" fill="#6FC2D0" stroke="#1E2234" stroke-miterlimit="10" stroke-linecap="round" stroke-linejoin="round"/>
<path d="M370.867 235.967C370.867 235.967 371.923 216.252 370.867 203.93C369.811 191.608 364.882 177.174 364.882 177.174L358.953 150.697" stroke="#1E2234" stroke-miterlimit="10" stroke-linecap="round" stroke-linejoin="round"/>
<path d="M373.328 235.967C373.328 235.967 373.68 219.772 375.089 209.211C376.497 198.649 382.13 182.103 382.13 182.103L392.712 159.434" stroke="#1E2234" stroke-miterlimit="10" stroke-linecap="round" stroke-linejoin="round"/>
<path d="M379.31 211.674C379.31 211.674 376.845 212.378 375.438 236.318" stroke="#1E2234" stroke-miterlimit="10" stroke-linecap="round" stroke-linejoin="round"/>
<path d="M367.343 235.615C367.343 235.615 368.047 222.941 366.639 218.365C365.231 213.788 362.869 215.803 362.869 215.803C362.869 215.803 356.353 216.57 353.992 220.348" stroke="#1E2234" stroke-miterlimit="10" stroke-linecap="round" stroke-linejoin="round"/>
<path d="M368.961 213.535C370.803 223.856 369.104 235.263 369.104 235.263" stroke="#1E2234" stroke-miterlimit="10" stroke-linecap="round" stroke-linejoin="round"/>
<path d="M352.969 198.132C352.969 198.132 363.114 196.185 367.339 207.451C367.753 208.556 368.103 209.712 368.398 210.899" stroke="#1E2234" stroke-miterlimit="10" stroke-linecap="round" stroke-linejoin="round"/>
<path d="M395.312 187.217C395.312 187.217 397.433 182.505 405.68 185.568C413.926 188.631 417.224 193.343 412.041 194.992C406.857 196.642 395.312 187.217 395.312 187.217Z" fill="#6FC2D0" stroke="#1E2234" stroke-miterlimit="10" stroke-linecap="round" stroke-linejoin="round"/>
<path d="M397.203 187.53C397.203 187.53 405.703 187.057 409.716 192.015" stroke="#1E2234" stroke-miterlimit="10" stroke-linecap="round" stroke-linejoin="round"/>
<path d="M386.298 189.283C384.259 190.679 382.3 192.932 380.947 196.538C376.722 207.804 377.204 235.617 377.204 235.617" stroke="#1E2234" stroke-miterlimit="10" stroke-linecap="round" stroke-linejoin="round"/>
<path d="M395.312 187.218C395.312 187.218 391.949 186.573 388.289 188.175" stroke="#1E2234" stroke-miterlimit="10" stroke-linecap="round" stroke-linejoin="round"/>
<path d="M359.609 180.109C361.81 182.694 363.944 186.187 365.584 190.904C371.217 207.098 373.329 227.87 372.273 235.615" stroke="#1E2234" stroke-miterlimit="10" stroke-linecap="round" stroke-linejoin="round"/>
<path d="M358.386 178.766C353.413 173.688 348.502 172.922 348.502 172.922C348.502 172.922 341.247 171.001 338.414 173.599" stroke="#1E2234" stroke-miterlimit="10" stroke-linecap="round" stroke-linejoin="round"/>
<path d="M373.914 195.266C373.571 215.704 373.328 235.968 373.328 235.968" stroke="#1E2234" stroke-miterlimit="10" stroke-linecap="round" stroke-linejoin="round"/>
<path d="M373.961 192.722C374.193 179.207 374.467 165.98 374.74 158.866C375.444 140.559 376.538 141.586 376.538 141.586C376.538 141.586 377.842 137.476 385.161 137.948" stroke="#1E2234" stroke-miterlimit="10" stroke-linecap="round" stroke-linejoin="round"/>
<path d="M384.607 271.877H361.701C360.13 271.877 358.815 270.684 358.663 269.121L355.375 235.264H390.933L387.645 269.121C387.493 270.684 386.179 271.877 384.607 271.877Z" fill="#1E2234" stroke="#1E2234" stroke-miterlimit="10" stroke-linecap="round" stroke-linejoin="round"/>
<path d="M356.438 246.176L356.814 250.048H389.499L389.875 246.176H356.438Z" fill="#FF8246" stroke="#1E2234" stroke-miterlimit="10" stroke-linecap="round" stroke-linejoin="round"/>
<path d="M388.68 258.497L388.885 256.385H357.43L357.635 258.497H388.68Z" fill="white" stroke="#1E2234" stroke-miterlimit="10" stroke-linecap="round" stroke-linejoin="round"/>
<path d="M49.8094 53.9219H1V94.2016H49.8094V53.9219Z" fill="#6FC2D0" stroke="#1E2234" stroke-miterlimit="10" stroke-linecap="round" stroke-linejoin="round"/>
<path d="M10.0758 65.2598H3.94531V71.3902H10.0758V65.2598Z" fill="white" stroke="#1E2234" stroke-miterlimit="10" stroke-linecap="round" stroke-linejoin="round"/>
<path d="M19.2711 65.2598H13.1406V71.3902H19.2711V65.2598Z" fill="#FF8246" stroke="#1E2234" stroke-miterlimit="10" stroke-linecap="round" stroke-linejoin="round"/>
<path d="M28.4664 65.2598H22.3359V71.3902H28.4664V65.2598Z" fill="white" stroke="#1E2234" stroke-miterlimit="10" stroke-linecap="round" stroke-linejoin="round"/>
<path d="M37.6617 65.2598H31.5312V71.3902H37.6617V65.2598Z" fill="white" stroke="#1E2234" stroke-miterlimit="10" stroke-linecap="round" stroke-linejoin="round"/>
<path d="M46.857 65.2598H40.7266V71.3902H46.857V65.2598Z" fill="white" stroke="#1E2234" stroke-miterlimit="10" stroke-linecap="round" stroke-linejoin="round"/>
<path d="M10.0758 74.7109H3.94531V80.8414H10.0758V74.7109Z" fill="white" stroke="#1E2234" stroke-miterlimit="10" stroke-linecap="round" stroke-linejoin="round"/>
<path d="M19.2711 74.7109H13.1406V80.8414H19.2711V74.7109Z" fill="white" stroke="#1E2234" stroke-miterlimit="10" stroke-linecap="round" stroke-linejoin="round"/>
<path d="M28.4664 74.7109H22.3359V80.8414H28.4664V74.7109Z" fill="white" stroke="#1E2234" stroke-miterlimit="10" stroke-linecap="round" stroke-linejoin="round"/>
<path d="M37.6617 74.7109H31.5312V80.8414H37.6617V74.7109Z" fill="#FF8246" stroke="#1E2234" stroke-miterlimit="10" stroke-linecap="round" stroke-linejoin="round"/>
<path d="M46.857 74.7109H40.7266V80.8414H46.857V74.7109Z" fill="white" stroke="#1E2234" stroke-miterlimit="10" stroke-linecap="round" stroke-linejoin="round"/>
<path d="M10.0758 84.1641H3.94531V90.2945H10.0758V84.1641Z" fill="white" stroke="#1E2234" stroke-miterlimit="10" stroke-linecap="round" stroke-linejoin="round"/>
<path d="M19.2711 84.1641H13.1406V90.2945H19.2711V84.1641Z" fill="white" stroke="#1E2234" stroke-miterlimit="10" stroke-linecap="round" stroke-linejoin="round"/>
<path d="M28.4664 84.1641H22.3359V90.2945H28.4664V84.1641Z" fill="#FF8246" stroke="#1E2234" stroke-miterlimit="10" stroke-linecap="round" stroke-linejoin="round"/>
<path d="M37.6617 84.1641H31.5312V90.2945H37.6617V84.1641Z" fill="white" stroke="#1E2234" stroke-miterlimit="10" stroke-linecap="round" stroke-linejoin="round"/>
<path d="M46.857 84.1641H40.7266V90.2945H46.857V84.1641Z" fill="white" stroke="#1E2234" stroke-miterlimit="10" stroke-linecap="round" stroke-linejoin="round"/>
<path d="M19.1408 57.336C18.1569 57.336 17.3594 56.5384 17.3594 55.5545V49.424C17.3594 48.4401 18.1569 47.6426 19.1408 47.6426C20.1248 47.6426 20.9223 48.4401 20.9223 49.424V55.5545C20.9223 56.5384 20.1255 57.336 19.1408 57.336Z" fill="#1E2234"/>
<path d="M31.6643 57.336C30.6803 57.336 29.8828 56.5384 29.8828 55.5545V49.424C29.8828 48.4401 30.6803 47.6426 31.6643 47.6426C32.6482 47.6426 33.4457 48.4401 33.4457 49.424V55.5545C33.4457 56.5384 32.6482 57.336 31.6643 57.336Z" fill="#1E2234"/>
</svg>
