<svg width="26" height="25" viewBox="0 0 26 25" fill="none" xmlns="http://www.w3.org/2000/svg">
<path fill-rule="evenodd" clip-rule="evenodd" d="M16.9137 23.1423C13.7022 23.1423 9.92358 21.5403 6.75043 18.5603C1.68743 13.8013 0.365812 7.58933 3.74114 4.41733C4.73821 3.48133 5.95129 2.91133 7.35058 2.72133L8.1593 2.61133L11.1356 9.13333L8.1593 10.5313C8.84884 11.7593 9.89379 13.0283 11.2654 14.3173C12.5732 15.5463 13.9225 16.5213 15.2771 17.2133L16.6753 14.6403L23.5739 15.5663L23.6143 16.3933C23.7154 18.4523 23.0876 20.1793 21.799 21.3893C20.5391 22.5733 18.8269 23.1423 16.9137 23.1423ZM6.87599 4.87533C6.26413 5.06833 5.71718 5.38933 5.24579 5.83333C2.79835 8.13233 4.17743 13.3133 8.25507 17.1463C12.3348 20.9793 17.8469 22.2723 20.2943 19.9743C21.1094 19.2083 21.4031 18.1983 21.4755 17.3043L17.8926 16.8233L17.2052 18.1173C16.9456 18.6053 16.4976 18.9643 15.9432 19.1273C15.3888 19.2923 14.7738 19.2333 14.2587 18.9703C12.7264 18.1873 11.2122 17.0973 9.75971 15.7323C8.23804 14.3023 7.06859 12.8733 6.28222 11.4843C6.00875 10.9993 5.95661 10.4453 6.13325 9.92333C6.30989 9.40433 6.6919 8.98533 7.21012 8.74133L8.38702 8.18833L6.87599 4.87533Z" fill="#92989F"/>
</svg>
