<svg width="94" height="94" viewBox="0 0 94 94" fill="none" xmlns="http://www.w3.org/2000/svg">
<path d="M0 47C0 21.0426 21.0426 0 47 0V0C72.9574 0 94 21.0426 94 47V47C94 72.9574 72.9574 94 47 94V94C21.0426 94 0 72.9574 0 47V47Z" fill="white"/>
<path fill-rule="evenodd" clip-rule="evenodd" d="M17.5859 64.978H19.2787V74.5891H17.5859V64.978ZM54.0741 29.2474L54.6789 28.6101L60.1417 39.7227L59.3099 39.9091L54.0741 29.2474ZM63.4581 46.4694L71.0953 62.0054C71.313 62.3333 71.5475 62.5213 71.8056 62.5061L71.6545 63.3254C71.1393 63.2329 70.6982 62.8969 70.3243 62.3392L62.6875 46.7875C62.9452 46.682 63.2018 46.5759 63.4581 46.4694ZM43.1126 24.0544C45.2286 24.0124 45.1381 19.9647 43.1126 19.6496L31.1048 19.5894C8.04225 19.8862 0.44543 57.9987 32.4586 61.7548C34.8066 61.6609 36.9746 60.8732 38.4356 59.3232L45.8076 44.73L44.5337 42.4785C45.3889 42.3812 46.2469 42.2728 47.109 42.1539L54.0512 28.4123C54.7457 26.9032 55.4761 26.7961 56.2514 28.3827L61.5961 39.3889C62.3985 39.202 63.2027 39.0105 64.0087 38.8149C64.9149 38.5952 65.8323 38.3659 66.7582 38.1286L58.3321 20.895C56.6647 19.005 54.9388 18.6425 53.1105 21.0009L36.166 54.1007C35.3515 55.6466 34.2289 56.5293 32.8506 56.8621C12.6446 57.6341 7.30576 26.6741 31.8532 23.846L43.1126 24.0544ZM64.767 45.9188L72.2575 61.3442C74.3443 62.2446 76.2852 62.2649 78.05 61.2234L69.5318 43.8016C67.9701 44.5235 66.3836 45.2301 64.767 45.9188ZM27.5699 64.978L32.591 71.5338V64.978H34.2838V73.7441V74.5891H33.0217L28.0008 68.0335L28.0006 74.5891H26.3079V65.8232V64.978H27.5699ZM66.7659 71.1246L70.8508 71.1243L68.8085 66.7514L66.7659 71.1246ZM67.98 64.978H69.6367H69.6728L74.1617 74.5891H72.4689L71.5841 72.6945L66.0326 72.6947L65.1478 74.5891H63.455L67.9439 64.978H67.98ZM55.8452 64.978H57.538V74.5891H55.8452V64.978ZM41.026 64.978H41.772V64.9635H45.1001C47.5777 64.9635 49.6047 66.9904 49.6047 69.4679V70.0991C49.6047 72.5767 47.5777 74.6035 45.1001 74.6035H41.772V74.5891H41.026V64.978ZM42.7187 66.5867V72.9804H45.1001C46.685 72.9804 47.9815 71.6839 47.9815 70.0991V69.4679C47.9815 67.8831 46.685 66.5867 45.1001 66.5867H42.7187Z" fill="#1370A2"/>
<path fill-rule="evenodd" clip-rule="evenodd" d="M44.5312 42.4789C50.8509 41.759 57.366 40.4261 64.0064 38.8153C68.852 37.6399 74.0367 36.1812 78.9626 34.7802C70.5669 39.547 60.0752 42.2578 50.5179 44.9746L53.3233 50.6892L50.0161 52.1719L44.5312 42.4789Z" fill="#F4772D"/>
<path fill-rule="evenodd" clip-rule="evenodd" d="M53.9141 46.2461C64.3233 43.2818 74.5127 39.7945 84.6155 36.1014C76.7111 40.441 68.5139 44.6042 59.2694 48.1376L61.9887 53.5068L58.9845 55.207L53.9141 46.2461Z" fill="#6BBB4F"/>
</svg>
