<svg width="24" height="24" viewBox="0 0 24 24" fill="none" xmlns="http://www.w3.org/2000/svg">
<path d="M3.67962 2.10985L5.08237 0.707107C5.47289 0.316582 6.10606 0.316582 6.49658 0.707106L9.71395 3.92447C10.1045 4.315 10.1045 4.94816 9.71395 5.33869L7.52687 7.52576C7.1808 7.87183 7.095 8.40053 7.31388 8.83829C8.57918 11.3689 10.6311 13.4208 13.1617 14.6861C13.5995 14.905 14.1282 14.8192 14.4742 14.4731L16.6613 12.2861C17.0518 11.8955 17.685 11.8955 18.0755 12.2861L21.2929 15.5034C21.6834 15.8939 21.6834 16.5271 21.2929 16.9176L19.8902 18.3204C17.7788 20.4317 14.4362 20.6693 12.0475 18.8777L9.57594 17.0241C7.83241 15.7164 6.28359 14.1676 4.97594 12.4241L3.12226 9.95249C1.33072 7.56377 1.56827 4.2212 3.67962 2.10985Z" fill="#222222"/>
</svg>
