<svg width="26" height="24" viewBox="0 0 26 24" fill="none" xmlns="http://www.w3.org/2000/svg">
<path fill-rule="evenodd" clip-rule="evenodd" d="M16.9137 22.2361C13.7022 22.2361 9.92358 20.6341 6.75043 17.6541C1.68743 12.8951 0.365812 6.68308 3.74114 3.51108C4.73821 2.57508 5.95129 2.00508 7.35058 1.81508L8.1593 1.70508L11.1356 8.22708L8.1593 9.62508C8.84884 10.8531 9.89379 12.1221 11.2654 13.4111C12.5732 14.6401 13.9225 15.6151 15.2771 16.3071L16.6753 13.7341L23.5739 14.6601L23.6143 15.4871C23.7154 17.5461 23.0876 19.2731 21.799 20.4831C20.5391 21.6671 18.8269 22.2361 16.9137 22.2361ZM6.87599 3.96908C6.26413 4.16208 5.71718 4.48308 5.24579 4.92708C2.79835 7.22608 4.17743 12.4071 8.25507 16.2401C12.3348 20.0731 17.8469 21.3661 20.2943 19.0681C21.1094 18.3021 21.4031 17.2921 21.4755 16.3981L17.8926 15.9171L17.2052 17.2111C16.9456 17.6991 16.4976 18.0581 15.9432 18.2211C15.3888 18.3861 14.7738 18.3271 14.2587 18.0641C12.7264 17.2811 11.2122 16.1911 9.75971 14.8261C8.23804 13.3961 7.06859 11.9671 6.28222 10.5781C6.00875 10.0931 5.95661 9.53908 6.13325 9.01708C6.30989 8.49808 6.6919 8.07908 7.21012 7.83508L8.38702 7.28208L6.87599 3.96908Z" fill="#92989F"/>
</svg>
